<svg width="32" height="32" viewBox="0 0 32 32" fill="none" xmlns="http://www.w3.org/2000/svg">
<path d="M5.58928 4.41044C5.43298 4.25414 5.22099 4.16633 4.99995 4.16633C4.7789 4.16633 4.56691 4.25414 4.41061 4.41044C4.25431 4.56674 4.1665 4.77873 4.1665 4.99977C4.1665 5.10922 4.18806 5.2176 4.22995 5.31871C4.27183 5.41983 4.33322 5.51171 4.41061 5.5891L14.8213 15.9998L4.41061 26.4104C4.33322 26.4878 4.27183 26.5797 4.22995 26.6808C4.18806 26.7819 4.1665 26.8903 4.1665 26.9998C4.1665 27.1092 4.18806 27.2176 4.22995 27.3187C4.27183 27.4198 4.33322 27.5117 4.41061 27.5891C4.48801 27.6665 4.57988 27.7279 4.681 27.7698C4.78212 27.8117 4.8905 27.8332 4.99995 27.8332C5.1094 27.8332 5.21777 27.8117 5.31889 27.7698C5.42001 27.7279 5.51189 27.6665 5.58928 27.5891L15.9999 17.1784L26.4099 27.5884C26.4873 27.6658 26.5792 27.7272 26.6803 27.7691C26.7815 27.811 26.8898 27.8325 26.9993 27.8325C27.1087 27.8325 27.2171 27.811 27.3182 27.7691C27.4193 27.7272 27.5112 27.6658 27.5886 27.5884C27.666 27.511 27.7274 27.4192 27.7693 27.3181C27.8112 27.2169 27.8327 27.1086 27.8327 26.9991C27.8327 26.8897 27.8112 26.7813 27.7693 26.6802C27.7274 26.579 27.666 26.4872 27.5886 26.4098L17.1786 15.9998L27.5886 5.5891C27.6697 5.51262 27.7347 5.42063 27.7796 5.31858C27.8246 5.21654 27.8486 5.10651 27.8502 4.99502C27.8519 4.88353 27.8311 4.77285 27.7892 4.66952C27.7473 4.5662 27.6851 4.47233 27.6062 4.39349C27.5274 4.31465 27.4335 4.25243 27.3302 4.21052C27.2269 4.16861 27.1162 4.14786 27.0047 4.1495C26.8932 4.15115 26.7832 4.17515 26.6811 4.22008C26.5791 4.26502 26.4871 4.32997 26.4106 4.4111L15.9999 14.8211L5.58928 4.41044Z" fill="white"/>
</svg>
