<svg width="32" height="32" viewBox="0 0 32 32" fill="none" xmlns="http://www.w3.org/2000/svg">
<path d="M20.707 5.29279C20.8945 5.48031 20.9998 5.73462 20.9998 5.99979C20.9998 6.26495 20.8945 6.51926 20.707 6.70679L11.414 15.9998L20.707 25.2928C20.8892 25.4814 20.99 25.734 20.9877 25.9962C20.9854 26.2584 20.8803 26.5092 20.6948 26.6946C20.5094 26.88 20.2586 26.9852 19.9964 26.9875C19.7342 26.9897 19.4816 26.8889 19.293 26.7068L9.29303 16.7068C9.10556 16.5193 9.00024 16.265 9.00024 15.9998C9.00024 15.7346 9.10556 15.4803 9.29303 15.2928L19.293 5.29279C19.4806 5.10532 19.7349 5 20 5C20.2652 5 20.5195 5.10532 20.707 5.29279Z" fill="#1E1E1E"/>
</svg>
