<svg width="24" height="24" viewBox="0 0 24 24" fill="none" xmlns="http://www.w3.org/2000/svg">
<rect width="24" height="24" transform="matrix(-1 0 0 1 24 0)" fill="white"/>
<path d="M15.942 19.817C16.0001 19.7589 16.0461 19.69 16.0775 19.6142C16.109 19.5383 16.1251 19.4571 16.1251 19.375C16.1251 19.2929 16.109 19.2116 16.0775 19.1357C16.0461 19.0599 16.0001 18.991 15.942 18.933L9.00901 12L15.942 5.06696C16.0592 4.94973 16.1251 4.79074 16.1251 4.62496C16.1251 4.54287 16.1089 4.46159 16.0775 4.38575C16.0461 4.30991 16.0001 4.241 15.942 4.18296C15.884 4.12492 15.8151 4.07887 15.7392 4.04746C15.6634 4.01605 15.5821 3.99988 15.5 3.99988C15.3342 3.99988 15.1752 4.06573 15.058 4.18296L7.68301 11.558C7.62495 11.616 7.5789 11.6849 7.54748 11.7607C7.51606 11.8366 7.49989 11.9179 7.49989 12C7.49989 12.0821 7.51606 12.1633 7.54748 12.2392C7.5789 12.315 7.62495 12.3839 7.68301 12.442L15.058 19.817C15.116 19.875 15.185 19.9211 15.2608 19.9525C15.3366 19.9839 15.4179 20.0001 15.5 20.0001C15.5821 20.0001 15.6634 19.9839 15.7392 19.9525C15.8151 19.9211 15.884 19.875 15.942 19.817Z" fill="#1E1E1E"/>
</svg>
