<svg width="108" height="31" viewBox="0 0 108 31" fill="none" xmlns="http://www.w3.org/2000/svg">
<rect width="27.0623" height="20.9901" fill="#C10A27"/>
<path d="M2.53688 5.8772L13.5264 16.7921L14.1794 16.1499L3.83087 5.8772H2.53688Z" fill="white"/>
<path d="M19.6469 5.8772H18.3432L14.2859 9.89855L14.9321 10.5472L19.6469 5.8772Z" fill="white"/>
<path d="M16.176 11.7823L22.1268 5.8772H20.8231L15.5247 11.139L16.176 11.7823Z" fill="white"/>
<path d="M5.00341 5.8772L14.8056 15.609L15.4576 14.9593L6.30844 5.8772H5.00341Z" fill="white"/>
<path d="M23.225 5.8772L16.7328 12.3348L17.3788 12.9774L24.525 5.8772H23.225Z" fill="white"/>
<path d="M7.62542 5.8772L16.0791 14.2668L16.7324 13.6241L8.92912 5.8772H7.62542Z" fill="white"/>
<path fill-rule="evenodd" clip-rule="evenodd" d="M13.5311 30.2127L0 20.9897H5.07417L24.8496 22.4979L13.5311 30.2127Z" fill="#C10A27"/>
<rect width="80.2655" height="20.9901" transform="translate(27.0622 -0.000244141)" fill="#C10A27"/>
<path d="M36.805 10.0149V13.4949H35.895V6.49487H36.805V9.55487H40.995V6.49487H41.905V13.4949H40.995V10.0149H36.805ZM48.1932 11.4349H44.7432L43.8632 13.4949H43.4032L46.3632 6.49487H46.8632L50.1232 13.4949H49.1532L48.1932 11.4349ZM47.9832 10.9849L46.4132 7.61487H46.3732L44.9332 10.9849H47.9832ZM59.6774 6.49487H60.5974V13.4949H51.6274V6.49487H52.5374V12.9449H55.6574V6.49487H56.5674V12.9449H59.6774V6.49487ZM65.7907 9.99487C65.7907 9.61487 65.8607 9.21154 66.0007 8.78487C66.1474 8.35821 66.374 7.96821 66.6807 7.61487C66.9874 7.25487 67.3774 6.95821 67.8507 6.72487C68.324 6.49154 68.8907 6.37487 69.5507 6.37487C70.2174 6.37487 70.794 6.49487 71.2807 6.73487C71.774 6.96821 72.1807 7.26487 72.5007 7.62487C72.8207 7.98487 73.0574 8.37821 73.2107 8.80487C73.364 9.22487 73.4407 9.62154 73.4407 9.99487C73.4407 10.2415 73.404 10.5015 73.3307 10.7749C73.264 11.0482 73.1607 11.3215 73.0207 11.5949C72.8874 11.8615 72.714 12.1182 72.5007 12.3649C72.2874 12.6049 72.034 12.8182 71.7407 13.0049C71.454 13.1915 71.1274 13.3415 70.7607 13.4549C70.4007 13.5615 69.9974 13.6149 69.5507 13.6149C68.8907 13.6149 68.324 13.4982 67.8507 13.2649C67.3774 13.0249 66.9874 12.7249 66.6807 12.3649C66.374 12.0049 66.1474 11.6149 66.0007 11.1949C65.8607 10.7682 65.7907 10.3682 65.7907 9.99487ZM66.7707 9.99487C66.7707 10.4615 66.8407 10.8915 66.9807 11.2849C67.1274 11.6715 67.324 12.0049 67.5707 12.2849C67.824 12.5649 68.1207 12.7849 68.4607 12.9449C68.8007 13.0982 69.1707 13.1749 69.5707 13.1749C69.964 13.1749 70.334 13.0982 70.6807 12.9449C71.034 12.7849 71.3407 12.5649 71.6007 12.2849C71.8674 12.0049 72.0774 11.6715 72.2307 11.2849C72.384 10.8915 72.4607 10.4615 72.4607 9.99487C72.4607 9.52821 72.384 9.10154 72.2307 8.71487C72.0774 8.32154 71.8674 7.98487 71.6007 7.70487C71.3407 7.42487 71.034 7.20821 70.6807 7.05487C70.334 6.89487 69.964 6.81487 69.5707 6.81487C69.1707 6.81487 68.8007 6.89487 68.4607 7.05487C68.1207 7.20821 67.824 7.42487 67.5707 7.70487C67.324 7.98487 67.1274 8.32154 66.9807 8.71487C66.8407 9.10154 66.7707 9.52821 66.7707 9.99487ZM77.8431 6.49487H78.7531V7.27487H79.1031C79.5831 7.27487 80.0064 7.35154 80.3731 7.50487C80.7397 7.65821 81.0464 7.86154 81.2931 8.11487C81.5464 8.36821 81.7364 8.65487 81.8631 8.97487C81.9964 9.29487 82.0631 9.62487 82.0631 9.96487C82.0631 10.2249 82.0097 10.5115 81.9031 10.8249C81.8031 11.1315 81.6297 11.4182 81.3831 11.6849C81.1364 11.9515 80.8097 12.1749 80.4031 12.3549C80.0031 12.5349 79.4997 12.6249 78.8931 12.6249H78.7531V13.4949H77.8431V12.6249H77.7131C77.1064 12.6249 76.5997 12.5349 76.1931 12.3549C75.7864 12.1749 75.4597 11.9515 75.2131 11.6849C74.9731 11.4182 74.7997 11.1315 74.6931 10.8249C74.5931 10.5115 74.5431 10.2249 74.5431 9.96487C74.5431 9.62487 74.6064 9.29487 74.7331 8.97487C74.8597 8.65487 75.0464 8.36821 75.2931 8.11487C75.5464 7.86154 75.8564 7.65821 76.2231 7.50487C76.5964 7.35154 77.0231 7.27487 77.5031 7.27487H77.8431V6.49487ZM77.8431 12.2249V7.69487H77.7131C77.3197 7.69487 76.9831 7.76487 76.7031 7.90487C76.4231 8.03821 76.1931 8.21154 76.0131 8.42487C75.8397 8.63821 75.7097 8.88154 75.6231 9.15487C75.5431 9.42821 75.5031 9.69821 75.5031 9.96487C75.5031 10.2849 75.5564 10.5815 75.6631 10.8549C75.7764 11.1282 75.9331 11.3682 76.1331 11.5749C76.3331 11.7749 76.5731 11.9349 76.8531 12.0549C77.1331 12.1682 77.4431 12.2249 77.7831 12.2249H77.8431ZM78.7531 12.2249H78.8231C79.1631 12.2249 79.4731 12.1682 79.7531 12.0549C80.0331 11.9349 80.2731 11.7749 80.4731 11.5749C80.6731 11.3682 80.8264 11.1282 80.9331 10.8549C81.0464 10.5815 81.1031 10.2849 81.1031 9.96487C81.1031 9.69821 81.0597 9.42821 80.9731 9.15487C80.8931 8.88154 80.7631 8.63821 80.5831 8.42487C80.4097 8.21154 80.1831 8.03821 79.9031 7.90487C79.6231 7.76487 79.2864 7.69487 78.8931 7.69487H78.7531V12.2249ZM84.7738 12.6749L88.9238 6.49487H89.8338V13.4949H88.9238V7.24487L84.7738 13.4949H83.8638V6.49487H84.7738V12.6749ZM98.2429 12.2049L98.5429 12.4749C98.4562 12.5749 98.3296 12.6915 98.1629 12.8249C97.9962 12.9582 97.7862 13.0849 97.5329 13.2049C97.2862 13.3182 96.9929 13.4149 96.6529 13.4949C96.3196 13.5749 95.9396 13.6149 95.5129 13.6149C94.8396 13.6149 94.2596 13.5115 93.7729 13.3049C93.2862 13.0915 92.8862 12.8149 92.5729 12.4749C92.2596 12.1282 92.0262 11.7349 91.8729 11.2949C91.7262 10.8482 91.6529 10.3915 91.6529 9.92487C91.6529 9.38487 91.7462 8.89821 91.9329 8.46487C92.1196 8.02487 92.3829 7.65154 92.7229 7.34487C93.0629 7.03154 93.4696 6.79154 93.9429 6.62487C94.4229 6.45821 94.9529 6.37487 95.5329 6.37487C95.9329 6.37487 96.2896 6.41487 96.6029 6.49487C96.9162 6.57487 97.1896 6.68487 97.4229 6.82487C97.6562 6.96487 97.8496 7.13154 98.0029 7.32487C98.1629 7.51821 98.2929 7.72821 98.3929 7.95487H97.6529C97.6062 7.81487 97.5229 7.67821 97.4029 7.54487C97.2896 7.40487 97.1396 7.28154 96.9529 7.17487C96.7729 7.06821 96.5629 6.98154 96.3229 6.91487C96.0896 6.84821 95.8296 6.81487 95.5429 6.81487C95.1229 6.81487 94.7329 6.89154 94.3729 7.04487C94.0196 7.19821 93.7129 7.41154 93.4529 7.68487C93.1929 7.95821 92.9896 8.28487 92.8429 8.66487C92.7029 9.03821 92.6329 9.45154 92.6329 9.90487C92.6329 10.3315 92.6996 10.7415 92.8329 11.1349C92.9729 11.5282 93.1762 11.8749 93.4429 12.1749C93.7096 12.4749 94.0429 12.7149 94.4429 12.8949C94.8429 13.0749 95.3029 13.1649 95.8229 13.1649C96.7562 13.1649 97.5629 12.8449 98.2429 12.2049Z" fill="white"/>
</svg>
