<svg width="40" height="40" viewBox="0 0 40 40" fill="none" xmlns="http://www.w3.org/2000/svg">
<rect x="0.5" y="0.5" width="39" height="39" rx="19.5" stroke="white"/>
<path d="M16.768 10.1919C17.7985 10.0499 18.665 10.6804 19.075 11.4999L20.0835 13.5164C20.643 14.6354 20.3215 15.9484 19.4735 16.7744C18.9725 17.2619 18.469 17.8189 18.177 18.3104C18.1576 18.3454 18.1515 18.3863 18.16 18.4254C18.43 19.8884 19.4215 21.3339 20.306 22.3704C20.3506 22.4197 20.4086 22.4548 20.473 22.4714C20.5373 22.488 20.6051 22.4854 20.668 22.4639L22.6555 21.8429C23.1909 21.6756 23.7658 21.6841 24.2959 21.8673C24.8261 22.0505 25.2836 22.3988 25.6015 22.8609L27.04 24.9534C27.43 25.5209 27.6275 26.2909 27.3285 27.0314C27.0615 27.6929 26.545 28.6469 25.6055 29.2814C24.6305 29.9394 23.295 30.1894 21.5475 29.5904C19.595 28.9204 17.7505 27.2404 16.221 25.0919C14.6825 22.9299 13.416 20.2294 12.648 17.4134C11.922 14.7549 12.36 12.9649 13.391 11.8124C14.3855 10.7004 15.8105 10.3234 16.768 10.1919ZM17.9565 12.0589C17.728 11.6024 17.3205 11.3769 16.938 11.4294C16.0875 11.5464 15.0225 11.8629 14.323 12.6454C13.66 13.3869 13.201 14.6929 13.853 17.0844C14.5855 19.7684 15.7915 22.3334 17.239 24.3669C18.6955 26.4134 20.3505 27.8584 21.9525 28.4079C23.38 28.8974 24.2975 28.6554 24.9055 28.2454C25.5485 27.8109 25.944 27.1204 26.169 26.5634C26.272 26.3084 26.2275 25.9784 26.0095 25.6614L24.571 23.5694C24.4045 23.3273 24.1649 23.1449 23.8872 23.0489C23.6096 22.9529 23.3084 22.9483 23.028 23.0359L21.0405 23.6569C20.4465 23.8424 19.7775 23.6769 19.355 23.1819C18.4345 22.1034 17.2615 20.4494 16.93 18.6519C16.8667 18.3151 16.9278 17.9666 17.102 17.6714C17.481 17.0344 18.081 16.3849 18.6005 15.8789C19.108 15.3849 19.252 14.6499 18.965 14.0754L17.9565 12.0589Z" fill="white"/>
</svg>
