<svg width="24" height="24" viewBox="0 0 24 24" fill="none" xmlns="http://www.w3.org/2000/svg">
<path d="M8.76798 2.19193C9.79848 2.04993 10.665 2.68043 11.075 3.49993L12.0835 5.51643C12.643 6.63543 12.3215 7.94843 11.4735 8.77443C10.9725 9.26193 10.469 9.81893 10.177 10.3104C10.1576 10.3454 10.1515 10.3863 10.16 10.4254C10.43 11.8884 11.4215 13.3339 12.306 14.3704C12.3506 14.4197 12.4086 14.4548 12.473 14.4714C12.5373 14.488 12.6051 14.4854 12.668 14.4639L14.6555 13.8429C15.1909 13.6756 15.7658 13.6841 16.2959 13.8673C16.8261 14.0505 17.2836 14.3988 17.6015 14.8609L19.04 16.9534C19.43 17.5209 19.6275 18.2909 19.3285 19.0314C19.0615 19.6929 18.545 20.6469 17.6055 21.2814C16.6305 21.9394 15.295 22.1894 13.5475 21.5904C11.595 20.9204 9.75048 19.2404 8.22098 17.0919C6.68248 14.9299 5.41598 12.2294 4.64798 9.41343C3.92198 6.75493 4.35998 4.96493 5.39098 3.81243C6.38548 2.70043 7.81048 2.32343 8.76798 2.19193ZM9.95648 4.05893C9.72798 3.60243 9.32048 3.37693 8.93798 3.42943C8.08748 3.54643 7.02248 3.86293 6.32298 4.64543C5.65998 5.38693 5.20098 6.69293 5.85298 9.08443C6.58548 11.7684 7.79148 14.3334 9.23898 16.3669C10.6955 18.4134 12.3505 19.8584 13.9525 20.4079C15.38 20.8974 16.2975 20.6554 16.9055 20.2454C17.5485 19.8109 17.944 19.1204 18.169 18.5634C18.272 18.3084 18.2275 17.9784 18.0095 17.6614L16.571 15.5694C16.4045 15.3273 16.1649 15.1449 15.8872 15.0489C15.6096 14.9529 15.3084 14.9483 15.028 15.0359L13.0405 15.6569C12.4465 15.8424 11.7775 15.6769 11.355 15.1819C10.4345 14.1034 9.26148 12.4494 8.92998 10.6519C8.86666 10.3151 8.92778 9.96664 9.10198 9.67143C9.48098 9.03443 10.081 8.38493 10.6005 7.87893C11.108 7.38493 11.252 6.64993 10.965 6.07543L9.95648 4.05893Z" fill="#1E1E1E"/>
</svg>
