<svg width="233" height="94" viewBox="0 0 233 94" fill="none" xmlns="http://www.w3.org/2000/svg">
<path d="M23.6754 63.3884C26.2726 57.5829 32.2512 42.4036 33.2395 39.2724C33.4473 38.7447 33.5846 38.1931 33.6478 37.6313C33.6608 37.4238 33.6109 37.2171 33.5041 37.0369C33.3974 36.8568 33.2386 36.7111 33.0475 36.6181C32.4992 36.4766 31.9312 36.4216 31.365 36.4551C31.0833 36.4551 30.8627 36.4233 30.8627 36.1968C30.8627 35.9703 31.1486 35.8551 31.8632 35.8551C33.6478 35.8551 35.6938 35.9703 36.2451 35.9703C36.4983 35.9703 38.4095 35.8551 39.7203 35.8551C40.2022 35.8551 40.4758 35.9505 40.4758 36.1571C40.4758 36.3637 40.2839 36.4551 39.9449 36.4551C39.19 36.4332 38.444 36.6191 37.7928 36.9916C37.217 37.3889 36.5432 38.1042 35.3426 41.0804C34.8485 42.2725 32.6351 47.4978 30.3604 52.8503C27.6121 59.2081 25.6111 63.9129 24.5534 66.0189C23.3283 68.6336 23.1649 69.325 22.6953 69.325C22.1521 69.325 21.9398 68.721 21.0618 66.6348L10.1174 39.9797C9.14954 37.5638 8.46348 37.075 6.91166 36.6339C6.35399 36.505 5.78185 36.4449 5.20875 36.4551C4.94739 36.4551 4.85346 36.3121 4.85346 36.1571C4.85346 35.8909 5.31084 35.8551 6.01732 35.8551C8.16537 35.8551 10.7218 35.9703 11.2608 35.9703C11.6937 35.9703 13.7111 35.8551 15.4017 35.8551C16.2185 35.8551 16.6269 35.9505 16.6269 36.1571C16.6269 36.3637 16.4962 36.4551 16.1695 36.4551C15.6001 36.4368 15.0315 36.5107 14.487 36.6737C14.3047 36.7411 14.15 36.8645 14.0461 37.025C13.9423 37.1856 13.8949 37.3747 13.9112 37.5638C13.9112 38.1042 14.4339 39.4512 15.0955 41.14L23.6713 63.3923" fill="white"/>
<path d="M51.4533 56.0877C51.4533 60.268 51.4533 63.7092 51.6779 65.5291C51.7963 66.7927 52.0658 67.7344 53.4053 67.9133C54.0743 68.0035 54.7476 68.0606 55.4226 68.0841C55.7044 68.0841 55.782 68.2311 55.782 68.3464C55.782 68.5689 55.5615 68.708 55.0796 68.708C52.6294 68.708 49.7912 68.5689 49.5788 68.5689C49.3665 68.5689 46.5324 68.708 45.1807 68.708C44.6988 68.708 44.466 68.6206 44.466 68.3464C44.466 68.2311 44.5558 68.0841 44.8213 68.0841C45.2792 68.0703 45.7347 68.0131 46.1812 67.9133C47.0755 67.7384 47.3042 66.7967 47.4675 65.5291C47.6881 63.7092 47.6881 60.268 47.6881 56.0877V48.4465C47.6881 41.6675 47.6881 40.4396 47.5982 39.0568C47.5125 37.5627 47.0755 36.8196 46.0872 36.617C45.6338 36.5019 45.1674 36.4419 44.6988 36.4382C44.5232 36.4382 44.3476 36.3666 44.3476 36.1799C44.3476 35.9335 44.5558 35.8381 45.0786 35.8381C46.5324 35.8381 49.3379 35.9534 49.5707 35.9534C49.8034 35.9534 52.6008 35.8381 53.9443 35.8381C54.4303 35.8381 54.6549 35.9335 54.6549 36.1799C54.6549 36.3666 54.463 36.4382 54.2996 36.4382C53.9195 36.451 53.5411 36.4949 53.1684 36.5693C51.976 36.7958 51.6248 37.5468 51.5349 39.0568C51.4451 40.4396 51.4451 41.6675 51.4451 48.4465V56.0877" fill="white"/>
<path d="M69.8547 56.1723C69.8547 62.5698 70.0385 65.3474 70.8471 66.1381C71.5576 66.8295 72.7133 67.1395 76.209 67.1395C78.5857 67.1395 80.5377 67.0997 81.6118 65.8361C82.1997 65.0637 82.594 64.1684 82.7634 63.2215C82.8246 62.8718 82.9022 62.6572 83.1718 62.6572C83.4413 62.6572 83.4331 62.8321 83.4331 63.297C83.3315 64.7692 83.1075 66.2309 82.7634 67.668C82.4653 68.6296 82.355 68.8362 79.9579 68.8362C76.7317 68.8362 74.4244 68.7289 72.5418 68.6932C70.6592 68.6574 69.2748 68.5541 67.9884 68.5541C67.8088 68.5541 67.0492 68.6057 66.1549 68.6057C65.2605 68.6057 64.2845 68.6932 63.6107 68.6932C63.1084 68.6932 62.8879 68.6057 62.8879 68.3316C62.8879 68.2163 62.9777 68.0693 63.2391 68.0693C63.6916 68.0557 64.1417 67.9985 64.5826 67.8984C65.4851 67.7236 65.7097 66.7818 65.8853 65.5143C66.1099 63.6943 66.1099 60.2532 66.1099 56.0729V48.4475C66.1099 41.6685 66.1099 40.4407 66.0242 39.0579C65.9343 37.5638 65.5668 36.8803 64.0926 36.5704C63.5869 36.4855 63.0742 36.447 62.5612 36.4551C62.3978 36.4551 62.2386 36.3836 62.2386 36.1968C62.2386 35.9505 62.4387 35.8551 62.9328 35.8551C64.9747 35.8551 67.7516 35.9703 67.9884 35.9703C68.2253 35.9703 71.4678 35.8551 72.8032 35.8551C73.2932 35.8551 73.526 35.9505 73.526 36.1968C73.526 36.3836 73.3422 36.4551 73.1707 36.4551C72.674 36.4653 72.1787 36.5091 71.6883 36.5863C70.3938 36.8128 70.0548 37.5638 69.9486 39.0738C69.8547 40.4566 69.8547 41.6844 69.8547 48.4634V56.1723Z" fill="white"/>
<path d="M95.1227 56.173C95.1227 62.5706 95.2942 65.3481 96.1191 66.1389C96.8297 66.8303 97.969 67.1402 101.469 67.1402C103.813 67.1402 105.798 67.1005 106.888 65.8369C107.468 65.0599 107.861 64.1665 108.039 63.2222C108.072 62.8725 108.174 62.658 108.448 62.658C108.66 62.658 108.685 62.8328 108.685 63.2977C108.586 64.7692 108.368 66.2308 108.031 67.6687C107.725 68.6303 107.603 68.837 105.209 68.837C101.991 68.837 99.676 68.7297 97.7893 68.6939C95.9026 68.6581 94.5509 68.5548 93.2401 68.5548C93.0726 68.5548 92.3008 68.6065 91.3983 68.6065C90.4958 68.6065 89.5361 68.6939 88.8623 68.6939C88.3804 68.6939 88.1558 68.6065 88.1558 68.3323C88.1558 68.2171 88.2171 68.0701 88.4988 68.0701C88.9529 68.0578 89.4044 68.0005 89.8465 67.8992C90.7449 67.7243 90.9654 66.7826 91.1451 65.515C91.3697 63.6951 91.3697 60.2539 91.3697 56.0737V48.4483C91.3697 41.6693 91.3697 40.4414 91.288 39.0586C91.1941 37.5645 90.8225 36.8811 89.3442 36.5711C88.8533 36.4892 88.3557 36.4507 87.8577 36.4559C87.678 36.4559 87.4942 36.3844 87.4942 36.1976C87.4942 35.9512 87.6984 35.8559 88.2089 35.8559C90.214 35.8559 93.0277 35.9711 93.2482 35.9711C93.4687 35.9711 96.7398 35.8559 98.0589 35.8559C98.5734 35.8559 98.7817 35.9512 98.7817 36.1976C98.7817 36.3844 98.5897 36.4559 98.4386 36.4559C97.9419 36.4647 97.4465 36.5086 96.9562 36.587C95.6617 36.8135 95.2942 37.5645 95.2329 39.0745C95.1227 40.4573 95.1227 41.6852 95.1227 48.4642V56.173Z" fill="white"/>
<path d="M131.823 54.3374C132.048 54.3374 132.048 54.1903 132.011 54.0314L127.764 42.2854C127.539 41.6218 127.327 41.6218 127.094 42.2854L123.166 54.0314C123.1 54.2181 123.166 54.3374 123.301 54.3374H131.823ZM127.18 36.9329C127.707 35.4865 127.887 35.2322 128.164 35.2322C128.442 35.2322 128.626 35.4507 129.157 36.7978C129.814 38.4429 136.842 56.4076 139.566 62.9999C141.167 66.8821 142.494 67.5815 143.421 67.8238C143.99 68.0061 144.586 68.0935 145.185 68.0821C145.463 68.0821 145.626 68.1417 145.626 68.3444C145.626 68.6186 145.218 68.706 144.736 68.706C144.083 68.706 140.803 68.706 137.716 68.6186C136.899 68.5669 136.397 68.5669 136.397 68.3166C136.397 68.1417 136.528 68.0503 136.695 67.9987C136.957 67.9113 137.259 67.5298 136.957 66.8304L132.812 56.1334C132.78 56.0542 132.724 55.9867 132.65 55.9409C132.577 55.8952 132.49 55.8735 132.403 55.8791H122.815C122.594 55.8791 122.467 55.9944 122.353 56.2089L119.678 63.9297C119.302 64.8554 119.088 65.8359 119.045 66.8304C119.045 67.7086 120.001 68.0821 120.756 68.0821H121.185C121.5 68.0821 121.663 68.1735 121.663 68.3444C121.663 68.6186 121.361 68.706 120.981 68.706C119.911 68.706 117.996 68.5669 117.493 68.5669C116.991 68.5669 114.541 68.706 112.442 68.706C111.842 68.706 111.593 68.6186 111.593 68.3444C111.593 68.1735 111.78 68.0821 112.001 68.0821C112.438 68.0786 112.874 68.0508 113.308 67.9987C115.35 67.7364 116.244 66.0874 117.061 63.9297L127.18 36.9329Z" fill="white"/>
<path d="M169.638 57.6235C169.638 54.1029 169.422 53.6499 167.637 53.1413C167.136 53.0421 166.625 52.9968 166.114 53.0062C165.91 53.0062 165.751 52.9227 165.751 52.7598C165.751 52.4936 165.955 52.3982 166.461 52.3982C168.503 52.3982 171.284 52.5214 171.513 52.5214C171.742 52.5214 174.551 52.3982 175.882 52.3982C176.405 52.3982 176.601 52.4936 176.601 52.7598C176.601 52.9227 176.422 53.0062 176.254 53.0062C175.874 53.0109 175.496 53.0563 175.127 53.1413C173.93 53.34 173.567 54.1029 173.493 55.6169C173.404 56.9997 173.404 58.3189 173.404 60.1309V65.0105C173.404 66.9576 173.342 67.0728 172.812 67.3669C169.953 68.849 165.914 69.31 163.35 69.31C159.944 69.31 153.61 68.8769 148.648 64.6569C145.916 62.3681 143.339 57.699 143.339 52.283C143.331 45.3172 146.786 40.4297 150.804 37.9541C154.823 35.4785 159.225 35.2322 162.647 35.2322C164.939 35.2829 167.222 35.5248 169.471 35.9554C170.68 36.2115 171.91 36.3631 173.146 36.4084C173.575 36.4401 173.665 36.619 173.665 36.8057C173.438 38.8552 173.332 40.9155 173.346 42.9768C173.346 43.688 173.269 43.8867 172.938 43.8867C172.714 43.8867 172.66 43.6404 172.628 43.2271C172.541 42.2156 172.214 41.2376 171.672 40.3701C170.578 38.7051 166.947 36.8296 161.193 36.8296C158.367 36.8296 155.011 37.1157 151.625 39.7104C149.04 41.6973 147.231 45.6709 147.231 50.7651C147.231 56.8805 150.363 61.327 151.948 62.8012C153.477 64.2974 155.3 65.4798 157.307 66.2784C159.315 67.077 161.467 67.4755 163.635 67.4503C165.269 67.4503 167.572 67.1682 168.748 66.5324C169.034 66.3912 169.271 66.1712 169.429 65.8998C169.588 65.6285 169.66 65.3178 169.638 65.0065V57.6235Z" fill="white"/>
<path d="M187.028 56.0877C187.028 60.268 187.028 63.7092 187.261 65.5291C187.38 66.7927 187.67 67.7344 188.989 67.9133C189.648 68.0041 190.312 68.0611 190.977 68.0841C191.251 68.0841 191.365 68.2311 191.365 68.3464C191.365 68.5689 191.116 68.708 190.651 68.708C188.168 68.708 185.366 68.5689 185.138 68.5689C184.909 68.5689 182.14 68.708 180.764 68.708C180.266 68.708 180.053 68.6206 180.053 68.3464C180.053 68.2311 180.139 68.0841 180.409 68.0841C180.859 68.07 181.306 68.0128 181.744 67.9133C182.63 67.7384 182.863 66.7967 183.039 65.5291C183.251 63.7092 183.251 60.268 183.251 56.0877V48.4465C183.251 41.6675 183.251 40.4396 183.157 39.0568C183.071 37.5627 182.63 36.8196 181.671 36.617C181.211 36.5025 180.74 36.4425 180.266 36.4382C180.094 36.4382 179.906 36.3666 179.906 36.1799C179.906 35.9335 180.139 35.8381 180.633 35.8381C182.14 35.8381 184.917 35.9534 185.125 35.9534C185.334 35.9534 188.156 35.8381 189.483 35.8381C189.997 35.8381 190.206 35.9335 190.206 36.1799C190.206 36.3666 190.026 36.4382 189.867 36.4382C189.49 36.4503 189.116 36.4942 188.748 36.5693C187.567 36.7958 187.196 37.5468 187.114 39.0568C187.033 40.4396 187.033 41.6675 187.033 48.4465V56.0877" fill="white"/>
<path d="M211.509 67.6808C215.544 67.6808 223.862 65.392 223.862 52.7598C223.862 42.3211 217.328 36.7143 210.276 36.7143C202.798 36.7143 197.208 41.4827 197.208 50.9916C197.208 61.1243 203.484 67.6808 211.501 67.6808M210.553 35.2322C220.636 35.2322 228.134 41.4112 228.134 51.524C228.134 61.2554 221.073 69.302 210.304 69.302C198.053 69.302 192.973 60.0435 192.973 52.2154C192.973 45.1742 198.241 35.2361 210.553 35.2361" fill="white"/>
<path d="M95.0123 0L116.619 21.0364L117.906 19.8006L97.5564 0H95.0123Z" fill="white"/>
<path d="M128.653 0H126.093L118.113 7.75254L119.383 9.00026L128.653 0Z" fill="white"/>
<path d="M121.835 11.3805L133.535 0H130.974L120.553 10.1407L121.835 11.3805Z" fill="white"/>
<path d="M99.8661 0L119.141 18.7555L120.424 17.5038L102.431 0H99.8661Z" fill="white"/>
<path d="M135.69 0L122.924 12.4494L124.194 13.6852L138.246 0H135.69Z" fill="white"/>
<path d="M105.016 0L121.641 16.1687L122.924 14.9329L107.577 0H105.016Z" fill="white"/>
<path d="M0 21.8071H108.913L107.929 20.6388H0V21.8071Z" fill="white"/>
<path d="M0 21.8071H108.913L107.929 20.6388H0V21.8071Z" fill="white"/>
<path d="M108.909 20.6388H0V21.811H108.909V20.6388Z" fill="white"/>
<path d="M108.909 20.6388H0V21.811H108.909V20.6388Z" fill="white"/>
<path d="M0 21.8071H108.913L107.929 20.6388H0V21.8071Z" fill="white"/>
<path d="M0 21.8071H108.913L107.929 20.6388H0V21.8071Z" fill="white"/>
<path d="M108.909 20.6388H0V21.811H108.909V20.6388Z" fill="white"/>
<path d="M108.909 20.6388H0V21.811H108.909V20.6388Z" fill="white"/>
<path d="M232.996 21.8071H124.087L125.071 20.6388H232.996V21.8071Z" fill="white"/>
<path d="M232.996 21.8071H124.087L125.071 20.6388H232.996V21.8071Z" fill="white"/>
<path d="M233 20.6388H124.087V21.811H233V20.6388Z" fill="white"/>
<path d="M233 20.6388H124.087V21.811H233V20.6388Z" fill="white"/>
<path d="M232.996 21.8071H124.087L125.071 20.6388H232.996V21.8071Z" fill="white"/>
<path d="M232.996 21.8071H124.087L125.071 20.6388H232.996V21.8071Z" fill="white"/>
<path d="M233 20.6388H124.087V21.811H233V20.6388Z" fill="white"/>
<path d="M233 20.6388H124.087V21.811H233V20.6388Z" fill="white"/>
<path d="M130.991 89.7035C130.962 90.7401 130.992 91.7776 131.081 92.8109C131.11 93.252 131.183 93.5103 131.649 93.5619C131.88 93.6071 132.115 93.6298 132.351 93.6295C132.453 93.6295 132.453 93.705 132.453 93.7527C132.453 93.8003 132.412 93.8917 132.2 93.8917C131.383 93.8917 130.399 93.8361 130.321 93.8361C130.244 93.8361 129.182 93.8917 128.765 93.8917C128.565 93.8917 128.512 93.8679 128.512 93.7527C128.512 93.705 128.537 93.6613 128.647 93.6613C128.785 93.6512 128.921 93.6313 129.055 93.6017C129.37 93.5301 129.464 93.252 129.521 92.8069C129.57 92.2506 129.57 91.0983 129.57 89.6996V83.6438L127.385 83.7073C126.442 83.7312 126.074 83.8226 125.842 84.1484C125.742 84.2986 125.658 84.4584 125.592 84.6252C125.568 84.7365 125.535 84.7365 125.458 84.7365C125.443 84.7365 125.428 84.7336 125.415 84.728C125.402 84.7223 125.39 84.7139 125.38 84.7035C125.37 84.693 125.362 84.6807 125.357 84.6672C125.352 84.6538 125.35 84.6395 125.351 84.6252C125.351 84.4822 125.654 83.1908 125.666 83.0755C125.678 82.9603 125.793 82.8053 125.833 82.8053C125.874 82.8053 126.074 82.9007 126.511 82.9841C126.948 83.0676 127.536 83.0318 127.696 83.0318H133.47C133.94 83.0318 134.287 83.008 134.573 82.9841C134.858 82.9603 134.911 82.9007 134.981 82.9007C135.05 82.9007 135.042 82.9841 135.042 83.0755C135.042 83.5087 134.981 84.5696 134.981 84.7206C134.981 84.8716 134.92 84.9034 134.842 84.9034C134.764 84.9034 134.764 84.8438 134.764 84.6451L134.724 84.4981C134.691 84.061 134.352 83.7391 132.878 83.7034L130.975 83.6398V89.7035" fill="white"/>
<path d="M87.0236 87.0647C87.0236 84.7679 87.0236 84.3587 86.995 83.8858C86.9664 83.4129 86.8439 83.1507 86.3416 83.0474C86.1731 83.0183 86.0023 83.0037 85.8311 83.0037C85.7699 83.0037 85.7086 82.9758 85.7086 82.9162C85.7086 82.8566 85.7862 82.797 85.9496 82.797C86.6316 82.797 87.5831 82.8407 87.6607 82.8407C87.824 82.8407 88.9756 82.797 89.4412 82.797C90.3968 82.797 91.4054 82.8844 92.2099 83.4447C92.525 83.6791 92.7821 83.9793 92.9623 84.3231C93.1426 84.667 93.2413 85.0457 93.2513 85.4315C93.2513 86.5203 92.7816 87.6051 91.4218 88.829C92.6469 90.3708 93.6882 91.682 94.5662 92.592C95.0343 93.1457 95.6878 93.5213 96.4121 93.653C96.6066 93.683 96.8032 93.6976 97.0001 93.6967C97.0777 93.6967 97.1349 93.7404 97.1349 93.7841C97.1349 93.8278 97.0451 93.9033 96.7755 93.9033H95.7015C95.1407 93.9573 94.5755 93.8597 94.068 93.6212C93.4187 93.2834 92.8878 92.5642 92.0262 91.4595C91.3891 90.6648 90.6826 89.6674 90.3927 89.2859C90.3695 89.256 90.3391 89.2321 90.3043 89.2161C90.2694 89.2002 90.231 89.1928 90.1926 89.1946L88.3222 89.1826C88.2487 89.1826 88.216 89.2263 88.216 89.3018V89.6515C88.216 91.0622 88.216 92.2264 88.2936 92.8304C88.3386 93.2596 88.4284 93.5814 88.8817 93.6252C89.094 93.653 89.4248 93.6848 89.5637 93.6848C89.7025 93.6848 89.6821 93.7285 89.6821 93.7722C89.6821 93.8159 89.6086 93.8914 89.4412 93.8914C88.6244 93.8914 87.6566 93.8477 87.5831 93.8477C87.5096 93.8477 86.6152 93.8914 86.1619 93.8914C85.9945 93.8914 85.921 93.8596 85.921 93.7722C85.921 93.6848 85.9496 93.6848 86.0394 93.6848C86.1921 93.6787 86.3438 93.6587 86.4927 93.6252C86.7949 93.5655 86.8725 93.2278 86.9297 92.8304C87.0073 92.2145 87.0073 91.0502 87.0073 89.6515L87.0236 87.0647ZM88.2487 88.3442C88.2461 88.3757 88.2514 88.4074 88.2643 88.4365C88.2771 88.4656 88.297 88.4912 88.3222 88.5111C88.8314 88.6877 89.3707 88.7673 89.9108 88.7455C90.3082 88.7672 90.7029 88.6702 91.042 88.4674C91.5892 88.1137 91.9976 87.319 91.9976 86.2104C91.9976 84.3706 91.0011 83.2699 89.384 83.2699C89.0441 83.2626 88.7045 83.2919 88.3712 83.3573C88.334 83.3694 88.3018 83.3931 88.2797 83.4246C88.2576 83.4562 88.2467 83.494 88.2487 83.5321V88.3442Z" fill="white"/>
<path d="M98.7455 87.062C98.7455 84.7653 98.7455 84.356 98.7169 83.8831C98.6883 83.4103 98.5658 83.148 98.0676 83.0447C97.9215 83.0226 97.7743 83.008 97.6266 83.001C97.5245 83.001 97.4305 82.9732 97.4305 82.9136C97.4305 82.854 97.5081 82.7944 97.6756 82.7944C98.0227 82.7944 98.4311 82.7944 99.3826 82.8381C99.4887 82.8381 102.494 82.8381 102.846 82.8381C103.08 82.841 103.314 82.8102 103.54 82.7467C103.59 82.7142 103.647 82.695 103.707 82.6911C103.752 82.6911 103.764 82.7467 103.764 82.8222C103.712 83.0503 103.672 83.2811 103.646 83.5136C103.646 83.7321 103.613 84.0143 103.585 84.3957C103.585 84.5428 103.523 84.6461 103.462 84.6461C103.401 84.6461 103.344 84.5706 103.344 84.4554C103.346 84.2906 103.32 84.1267 103.266 83.9706C103.16 83.6328 102.858 83.4818 102.18 83.4262C101.923 83.3944 100.273 83.3825 100.109 83.3825C100.048 83.3825 100.016 83.4262 100.016 83.5295V87.5866C100.016 87.6899 100.016 87.7336 100.109 87.7336C100.305 87.7336 102.151 87.7336 102.511 87.7058C102.919 87.674 103.115 87.6303 103.266 87.4554C103.344 87.368 103.389 87.3084 103.45 87.3084C103.511 87.3084 103.523 87.3362 103.523 87.4276C103.523 87.519 103.45 87.7654 103.401 88.2502C103.352 88.7349 103.356 89.0449 103.344 89.2475C103.332 89.4502 103.295 89.4701 103.238 89.4701C103.18 89.4701 103.131 89.3509 103.131 89.2356C103.131 89.101 103.111 88.9671 103.07 88.8383C103.009 88.6197 102.829 88.4131 102.286 88.3535C101.878 88.3098 100.379 88.282 100.122 88.282C100.107 88.28 100.093 88.2813 100.079 88.2858C100.065 88.2902 100.052 88.2978 100.042 88.3078C100.032 88.3178 100.024 88.33 100.019 88.3435C100.015 88.3569 100.014 88.3712 100.016 88.3853V89.6767C100.016 90.1774 100.016 91.8821 100.016 92.192C100.048 92.796 100.138 93.1179 100.514 93.2649C100.922 93.381 101.347 93.4267 101.772 93.4C102.229 93.4164 102.687 93.3709 103.131 93.2649C103.613 93.1179 103.781 92.8119 103.903 92.1761C103.932 92.0172 103.96 91.9576 104.038 91.9576C104.116 91.9576 104.128 92.0768 104.128 92.1761C104.088 92.6546 104.023 93.1308 103.932 93.6026C103.826 94 103.707 94 103.115 94C101.996 94 101.482 93.9682 100.91 93.9563C100.338 93.9444 99.6072 93.9126 99.0191 93.9126C98.6557 93.9126 98.2922 93.9682 97.9002 93.9563C97.7327 93.9563 97.6592 93.9245 97.6592 93.8371C97.6592 93.7497 97.7327 93.7616 97.8267 93.7497C97.9434 93.7438 98.0594 93.7292 98.1738 93.7059C98.4923 93.6304 98.6883 93.4238 98.7169 92.3231C98.7169 91.7509 98.7455 90.9999 98.7455 89.6886V87.062Z" fill="white"/>
<path d="M109.243 89.5787C109.208 89.5786 109.174 89.5899 109.147 89.6108C109.12 89.6317 109.1 89.661 109.092 89.6939L108.185 92.3006C108.058 92.6152 107.987 92.9483 107.973 93.2861C107.979 93.349 107.998 93.4102 108.029 93.4659C108.06 93.5216 108.102 93.5707 108.152 93.6104C108.203 93.65 108.261 93.6794 108.324 93.6967C108.386 93.714 108.452 93.719 108.516 93.7113H108.651C108.802 93.7113 108.851 93.7391 108.851 93.7987C108.851 93.8583 108.712 93.9179 108.577 93.9179C108.214 93.9179 107.61 93.8742 107.442 93.8742C107.275 93.8742 106.446 93.9179 105.735 93.9179C105.539 93.9179 105.449 93.8861 105.449 93.7987C105.449 93.7113 105.523 93.7113 105.658 93.7113C105.779 93.708 105.901 93.6974 106.021 93.6795C106.719 93.592 107.022 93.0357 107.291 92.3006L110.725 83.1613C110.905 82.6765 110.966 82.5851 111.056 82.5851C111.146 82.5851 111.207 82.6606 111.387 83.1176C111.616 83.6739 113.988 89.7495 114.911 91.9867C115.454 93.294 115.895 93.5324 116.21 93.6199C116.402 93.6767 116.601 93.7062 116.802 93.7073C116.892 93.7073 116.965 93.7073 116.965 93.7947C116.965 93.8821 116.831 93.9139 116.663 93.9139C116.496 93.9139 115.332 93.9139 114.291 93.8821C114.005 93.8821 113.837 93.8821 113.837 93.7788C113.837 93.6755 113.882 93.6914 113.943 93.6755C114.005 93.6596 114.123 93.5165 114.033 93.2781L112.629 89.6581C112.619 89.6306 112.6 89.6071 112.574 89.5913C112.549 89.5754 112.52 89.5682 112.49 89.5707L109.243 89.5787ZM112.298 89.0462C112.371 89.0462 112.371 89.0025 112.355 88.9469L110.922 84.9732C110.844 84.7547 110.766 84.7547 110.693 84.9732L109.362 88.9469C109.333 89.0184 109.362 89.0462 109.406 89.0462H112.298Z" fill="white"/>
<path d="M120.724 89.7026C120.724 91.8643 120.785 92.806 121.055 93.0683C121.324 93.3306 121.692 93.4061 122.868 93.4061C123.684 93.4061 124.334 93.4061 124.697 92.965C124.903 92.7061 125.042 92.404 125.106 92.0828C125.106 91.9676 125.151 91.8921 125.24 91.8921C125.33 91.8921 125.33 91.9517 125.33 92.1146C125.294 92.6096 125.219 93.1011 125.106 93.5849C124.999 93.9226 124.95 93.9822 124.15 93.9822C122.851 93.9822 121.565 93.8948 120.099 93.8948C119.629 93.8948 119.18 93.9385 118.617 93.9385C118.453 93.9385 118.376 93.9067 118.376 93.8193C118.376 93.7319 118.408 93.7319 118.498 93.7319C118.651 93.7258 118.803 93.7059 118.951 93.6723C119.254 93.6127 119.331 93.2749 119.388 92.8776C119.466 92.2617 119.466 91.0974 119.466 89.6987V87.1118C119.466 84.8151 119.466 84.4058 119.433 83.9329C119.401 83.4601 119.282 83.1978 118.784 83.0945C118.614 83.0653 118.442 83.0507 118.269 83.0508C118.212 83.0508 118.151 83.023 118.151 82.9634C118.151 82.9038 118.225 82.8442 118.392 82.8442C119.074 82.8442 120.025 82.8879 120.099 82.8879C120.172 82.8879 121.279 82.8442 121.732 82.8442C121.9 82.8442 121.973 82.8759 121.973 82.9634C121.973 83.0508 121.916 83.0508 121.855 83.0508C121.687 83.0547 121.519 83.0693 121.353 83.0945C120.916 83.17 120.797 83.4203 120.765 83.9329C120.732 84.4455 120.736 84.8151 120.736 87.1118L120.724 89.7026Z" fill="white"/>
<path d="M130.872 89.6507C130.872 91.0614 130.872 92.2257 130.945 92.8297C130.99 93.2588 131.08 93.5807 131.533 93.6244C131.746 93.6522 132.081 93.684 132.215 93.684C132.35 93.684 132.338 93.7277 132.338 93.7714C132.338 93.8151 132.26 93.8906 132.097 93.8906C131.28 93.8906 130.312 93.8469 130.235 93.8469C130.157 93.8469 129.206 93.8906 128.757 93.8906C128.589 93.8906 128.511 93.8588 128.511 93.7714C128.511 93.684 128.544 93.684 128.634 93.684C128.787 93.6776 128.938 93.6576 129.087 93.6244C129.389 93.5648 129.463 93.227 129.524 92.8297C129.602 92.2137 129.602 91.0495 129.602 89.6507V83.4281C128.859 83.4281 128.103 83.4281 127.364 83.4598C126.425 83.4598 126.065 83.5751 125.82 83.9287C125.72 84.0729 125.634 84.2259 125.563 84.3857C125.518 84.5049 125.473 84.5327 125.412 84.5327C125.351 84.5327 125.338 84.489 125.338 84.4016C125.338 84.2546 125.641 82.987 125.669 82.8717C125.698 82.7565 125.759 82.5896 125.82 82.5896C126.034 82.6747 126.258 82.7347 126.486 82.7684C126.927 82.8121 127.499 82.84 127.682 82.84H133.351C133.71 82.8466 134.07 82.8226 134.425 82.7684C134.649 82.7366 134.784 82.6929 134.833 82.6929C134.882 82.6929 134.911 82.7843 134.911 82.8717C134.911 83.3128 134.866 84.3261 134.866 84.489C134.866 84.6519 134.821 84.6797 134.76 84.6797C134.698 84.6797 134.653 84.636 134.637 84.4294C134.637 84.3698 134.637 84.3261 134.637 84.2665C134.592 83.8254 134.229 83.4718 132.779 83.4718C132.146 83.4718 131.509 83.4718 130.876 83.44L130.872 89.6507Z" fill="white"/>
<path d="M141.216 90.0998C141.238 89.5642 141.118 89.032 140.869 88.5541C140.763 88.3196 138.737 85.0851 138.206 84.3182C137.934 83.8988 137.587 83.53 137.181 83.2294C136.987 83.1015 136.765 83.0211 136.532 82.995C136.454 82.995 136.377 82.9672 136.377 82.8917C136.377 82.8162 136.438 82.7883 136.577 82.7883C136.863 82.7883 137.994 82.8321 138.071 82.8321C138.149 82.8321 138.753 82.7883 139.341 82.7883C139.509 82.7883 139.537 82.8321 139.537 82.8917C139.537 82.9513 139.448 82.9672 139.313 83.0268C139.257 83.0463 139.208 83.0817 139.172 83.1284C139.136 83.175 139.116 83.231 139.113 83.289C139.13 83.494 139.199 83.6918 139.313 83.8652C139.554 84.2904 141.82 88.0852 142.094 88.5104C142.38 87.8945 144.299 84.6718 144.601 84.1871C144.757 83.9649 144.846 83.7048 144.859 83.436C144.859 83.2294 144.797 83.0705 144.618 83.0387C144.438 83.0069 144.389 82.9632 144.389 82.8877C144.389 82.8122 144.483 82.8003 144.634 82.8003C145.042 82.8003 145.508 82.844 145.63 82.844C145.753 82.844 146.811 82.8003 147.096 82.8003C147.203 82.8003 147.292 82.8321 147.292 82.8877C147.292 82.9433 147.219 83.0069 147.096 83.0069C146.851 83.0167 146.612 83.0878 146.402 83.2135C146.081 83.4083 145.803 83.6637 145.585 83.9645C144.53 85.4681 143.565 87.0297 142.694 88.6415C142.513 89.1106 142.437 89.6117 142.47 90.1117V91.3754C142.47 91.6138 142.47 92.2297 142.515 92.8456C142.543 93.2747 142.682 93.5966 143.135 93.6403C143.348 93.6681 143.678 93.6999 143.813 93.6999C143.948 93.6999 143.936 93.7436 143.936 93.7873C143.936 93.831 143.862 93.9066 143.695 93.9066C142.878 93.9066 141.91 93.8628 141.833 93.8628C141.755 93.8628 140.808 93.9066 140.354 93.9066C140.187 93.9066 140.113 93.8748 140.113 93.7873C140.113 93.6999 140.142 93.6999 140.232 93.6999C140.384 93.694 140.536 93.6741 140.685 93.6403C140.987 93.5807 141.126 93.243 141.155 92.8456C141.2 92.2297 141.2 91.6138 141.2 91.3754L141.216 90.0998Z" fill="white"/>
</svg>
