<svg width="175" height="70" viewBox="0 0 175 70" fill="none" xmlns="http://www.w3.org/2000/svg">
<path d="M17.7819 47.2041C19.7327 42.8809 24.223 31.5772 24.9653 29.2454C25.1214 28.8524 25.2245 28.4417 25.272 28.0233C25.2817 27.8688 25.2442 27.7148 25.164 27.5807C25.0839 27.4465 24.9646 27.3381 24.8211 27.2688C24.4093 27.1635 23.9827 27.1225 23.5574 27.1474C23.3458 27.1474 23.1802 27.1238 23.1802 26.9551C23.1802 26.7864 23.3949 26.7006 23.9316 26.7006C25.272 26.7006 26.8086 26.7864 27.2227 26.7864C27.4129 26.7864 28.8483 26.7006 29.8329 26.7006C30.1948 26.7006 30.4003 26.7716 30.4003 26.9255C30.4003 27.0794 30.2561 27.1474 30.0016 27.1474C29.4345 27.1311 28.8742 27.2696 28.3852 27.5469C27.9527 27.8428 27.4466 28.3755 26.5449 30.5918C26.1737 31.4795 24.5113 35.3707 22.8029 39.3566C20.7387 44.0911 19.2358 47.5947 18.4414 49.163C17.5212 51.1101 17.3985 51.625 17.0458 51.625C16.6379 51.625 16.4784 51.1752 15.8189 49.6217L7.5989 29.7721C6.87198 27.973 6.35669 27.6091 5.19116 27.2806C4.77231 27.1846 4.34259 27.1398 3.91215 27.1474C3.71585 27.1474 3.6453 27.0409 3.6453 26.9255C3.6453 26.7272 3.98883 26.7006 4.51945 26.7006C6.13278 26.7006 8.05284 26.7864 8.45771 26.7864C8.78283 26.7864 10.298 26.7006 11.5678 26.7006C12.1813 26.7006 12.488 26.7716 12.488 26.9255C12.488 27.0794 12.3898 27.1474 12.1445 27.1474C11.7168 27.1338 11.2898 27.1888 10.8808 27.3102C10.7439 27.3604 10.6277 27.4523 10.5497 27.5718C10.4716 27.6914 10.4361 27.8322 10.4483 27.973C10.4483 28.3755 10.8409 29.3786 11.3378 30.6362L17.7789 47.2071" fill="white"/>
<path d="M38.6451 41.7675C38.6451 44.8804 38.6452 47.443 38.8138 48.7982C38.9028 49.7392 39.1052 50.4405 40.1113 50.5737C40.6138 50.6409 41.1195 50.6834 41.6264 50.7009C41.8381 50.7009 41.8964 50.8104 41.8964 50.8962C41.8964 51.0619 41.7307 51.1655 41.3688 51.1655C39.5285 51.1655 37.3968 51.0619 37.2373 51.0619C37.0778 51.0619 34.9492 51.1655 33.934 51.1655C33.572 51.1655 33.3972 51.1004 33.3972 50.8962C33.3972 50.8104 33.4647 50.7009 33.6641 50.7009C34.008 50.6906 34.3501 50.648 34.6854 50.5737C35.3571 50.4435 35.5289 49.7422 35.6516 48.7982C35.8172 47.443 35.8172 44.8804 35.8172 41.7675V36.0772C35.8172 31.029 35.8172 30.1146 35.7497 29.0848C35.6853 27.9722 35.3571 27.4189 34.6149 27.268C34.2743 27.1823 33.924 27.1376 33.572 27.1348C33.4401 27.1348 33.3083 27.0815 33.3083 26.9425C33.3083 26.759 33.4647 26.688 33.8573 26.688C34.9492 26.688 37.0564 26.7738 37.2312 26.7738C37.406 26.7738 39.507 26.688 40.5161 26.688C40.8811 26.688 41.0498 26.759 41.0498 26.9425C41.0498 27.0815 40.9057 27.1348 40.783 27.1348C40.4974 27.1444 40.2132 27.177 39.9334 27.2325C39.0378 27.4011 38.774 27.9604 38.7065 29.0848C38.639 30.1146 38.639 31.029 38.639 36.0772V41.7675" fill="white"/>
<path d="M52.466 41.8304C52.466 46.5945 52.604 48.6629 53.2113 49.2518C53.745 49.7667 54.613 49.9975 57.2385 49.9975C59.0236 49.9975 60.4897 49.9679 61.2964 49.0269C61.7379 48.4517 62.0341 47.785 62.1613 47.0798C62.2073 46.8194 62.2656 46.6596 62.468 46.6596C62.6705 46.6596 62.6643 46.7898 62.6643 47.136C62.588 48.2324 62.4198 49.3209 62.1613 50.391C61.9374 51.1071 61.8546 51.261 60.0542 51.261C57.6311 51.261 55.8982 51.1811 54.4842 51.1545C53.0702 51.1278 52.0304 51.0509 51.0643 51.0509C50.9293 51.0509 50.3588 51.0894 49.6871 51.0894C49.0154 51.0894 48.2823 51.1545 47.7763 51.1545C47.399 51.1545 47.2334 51.0894 47.2334 50.8852C47.2334 50.7994 47.3008 50.6899 47.4971 50.6899C47.8371 50.6798 48.1751 50.6372 48.5063 50.5627C49.1841 50.4325 49.3528 49.7312 49.4847 48.7872C49.6534 47.4319 49.6534 44.8694 49.6534 41.7564V36.078C49.6534 31.0298 49.6534 30.1154 49.589 29.0856C49.5215 27.973 49.2454 27.4641 48.1382 27.2333C47.7584 27.1701 47.3733 27.1413 46.988 27.1474C46.8653 27.1474 46.7457 27.0942 46.7457 26.9551C46.7457 26.7716 46.896 26.7006 47.2671 26.7006C48.8007 26.7006 50.8864 26.7864 51.0643 26.7864C51.2422 26.7864 53.6775 26.7006 54.6805 26.7006C55.0485 26.7006 55.2234 26.7716 55.2234 26.9551C55.2234 27.0942 55.0853 27.1474 54.9565 27.1474C54.5835 27.155 54.2115 27.1877 53.8431 27.2451C52.8708 27.4138 52.6163 27.973 52.5365 29.0975C52.466 30.1272 52.466 31.0416 52.466 36.0898V41.8304Z" fill="white"/>
<path d="M71.444 41.831C71.444 46.5951 71.5729 48.6635 72.1924 49.2523C72.7261 49.7672 73.5819 49.998 76.2104 49.998C77.971 49.998 79.4616 49.9684 80.2806 49.0275C80.716 48.4489 81.0115 47.7836 81.1455 47.0804C81.1701 46.82 81.2467 46.6602 81.4522 46.6602C81.6117 46.6602 81.6301 46.7904 81.6301 47.1366C81.556 48.2324 81.3919 49.3208 81.1394 50.3916C80.9094 51.1077 80.8174 51.2616 79.02 51.2616C76.603 51.2616 74.864 51.1817 73.4469 51.155C72.0299 51.1284 71.0146 51.0515 70.0301 51.0515C69.9043 51.0515 69.3246 51.0899 68.6468 51.0899C67.9689 51.0899 67.2481 51.155 66.7421 51.155C66.3801 51.155 66.2114 51.0899 66.2114 50.8858C66.2114 50.7999 66.2574 50.6905 66.4691 50.6905C66.8101 50.6813 67.1492 50.6387 67.4813 50.5632C68.156 50.433 68.3217 49.7317 68.4566 48.7878C68.6253 47.4325 68.6253 44.8699 68.6253 41.757V36.0785C68.6253 31.0303 68.6253 30.116 68.564 29.0862C68.4934 27.9736 68.2143 27.4646 67.104 27.2338C66.7353 27.1728 66.3616 27.1441 65.9875 27.148C65.8526 27.148 65.7146 27.0947 65.7146 26.9557C65.7146 26.7722 65.8679 26.7012 66.2513 26.7012C67.7573 26.7012 69.8706 26.787 70.0362 26.787C70.2018 26.787 72.6586 26.7012 73.6493 26.7012C74.0358 26.7012 74.1922 26.7722 74.1922 26.9557C74.1922 27.0947 74.0481 27.148 73.9346 27.148C73.5615 27.1546 73.1894 27.1872 72.8212 27.2456C71.8489 27.4143 71.5729 27.9736 71.5269 29.098C71.444 30.1278 71.444 31.0422 71.444 36.0903V41.831Z" fill="white"/>
<path d="M99.0089 40.464C99.1776 40.464 99.1776 40.3545 99.15 40.2361L95.9601 31.4891C95.7914 30.9949 95.632 30.9949 95.4571 31.4891L92.5065 40.2361C92.4574 40.3752 92.5065 40.464 92.6077 40.464H99.0089ZM95.5215 27.5032C95.9172 26.4261 96.0522 26.2367 96.2607 26.2367C96.4693 26.2367 96.6073 26.3995 97.006 27.4026C97.4999 28.6277 102.778 42.0057 104.824 46.9148C106.027 49.8058 107.023 50.3266 107.72 50.5071C108.147 50.6429 108.595 50.7079 109.045 50.6995C109.253 50.6995 109.376 50.7438 109.376 50.8948C109.376 51.0989 109.069 51.164 108.707 51.164C108.217 51.164 105.754 51.164 103.435 51.0989C102.821 51.0605 102.444 51.0605 102.444 50.874C102.444 50.7438 102.542 50.6758 102.668 50.6373C102.864 50.5722 103.091 50.2881 102.864 49.7673L99.7512 41.8015C99.7277 41.7425 99.6853 41.6922 99.6301 41.6581C99.5749 41.6241 99.5098 41.6079 99.4445 41.6121H92.2427C92.0771 41.6121 91.982 41.6979 91.8961 41.8577L89.8871 47.6072C89.6047 48.2966 89.444 49.0267 89.4117 49.7673C89.4117 50.4213 90.1294 50.6995 90.6969 50.6995H91.0189C91.2551 50.6995 91.3778 50.7675 91.3778 50.8948C91.3778 51.0989 91.1508 51.164 90.8656 51.164C90.062 51.164 88.6234 51.0605 88.2462 51.0605C87.8689 51.0605 86.0286 51.164 84.4521 51.164C84.0012 51.164 83.8141 51.0989 83.8141 50.8948C83.8141 50.7675 83.9552 50.6995 84.1208 50.6995C84.449 50.6968 84.7767 50.6761 85.1023 50.6373C86.6359 50.442 87.3076 49.214 87.9211 47.6072L95.5215 27.5032Z" fill="white"/>
<path d="M127.411 42.9112C127.411 40.2894 127.248 39.9521 125.908 39.5733C125.532 39.4995 125.148 39.4657 124.764 39.4727C124.611 39.4727 124.491 39.4106 124.491 39.2892C124.491 39.091 124.644 39.02 125.025 39.02C126.558 39.02 128.647 39.1117 128.819 39.1117C128.99 39.1117 131.101 39.02 132.101 39.02C132.493 39.02 132.64 39.091 132.64 39.2892C132.64 39.4106 132.505 39.4727 132.38 39.4727C132.095 39.4762 131.811 39.51 131.533 39.5733C130.634 39.7213 130.361 40.2894 130.306 41.4168C130.239 42.4466 130.239 43.429 130.239 44.7783V48.4121C130.239 49.862 130.193 49.9478 129.794 50.1668C127.647 51.2706 124.614 51.6138 122.687 51.6138C120.129 51.6138 115.372 51.2913 111.646 48.1487C109.594 46.4443 107.658 42.9674 107.658 38.9341C107.652 33.7469 110.247 30.1072 113.265 28.2637C116.283 26.4202 119.59 26.2367 122.16 26.2367C123.881 26.2745 125.596 26.4546 127.285 26.7753C128.193 26.966 129.117 27.0789 130.046 27.1126C130.368 27.1363 130.435 27.2694 130.435 27.4085C130.265 28.9347 130.185 30.469 130.196 32.004C130.196 32.5336 130.138 32.6816 129.889 32.6816C129.72 32.6816 129.681 32.4981 129.656 32.1904C129.591 31.4372 129.345 30.7088 128.938 30.0628C128.116 28.823 125.39 27.4263 121.068 27.4263C118.945 27.4263 116.424 27.6393 113.882 29.5716C111.94 31.0511 110.581 34.0102 110.581 37.8038C110.581 42.3578 112.934 45.669 114.124 46.7668C115.273 47.8811 116.641 48.7616 118.149 49.3562C119.657 49.9509 121.273 50.2477 122.902 50.229C124.129 50.229 125.859 50.0189 126.742 49.5454C126.957 49.4402 127.135 49.2764 127.254 49.0743C127.373 48.8723 127.427 48.6409 127.411 48.4091V42.9112Z" fill="white"/>
<path d="M140.472 41.7675C140.472 44.8804 140.472 47.443 140.647 48.7982C140.736 49.7392 140.954 50.4405 141.944 50.5737C142.439 50.6413 142.938 50.6838 143.438 50.7009C143.643 50.7009 143.729 50.8104 143.729 50.8962C143.729 51.0619 143.542 51.1655 143.193 51.1655C141.328 51.1655 139.224 51.0619 139.052 51.0619C138.88 51.0619 136.801 51.1655 135.767 51.1655C135.393 51.1655 135.233 51.1004 135.233 50.8962C135.233 50.8104 135.298 50.7009 135.5 50.7009C135.838 50.6904 136.174 50.6478 136.503 50.5737C137.169 50.4435 137.343 49.7422 137.475 48.7982C137.635 47.443 137.635 44.8804 137.635 41.7675V36.0772C137.635 31.029 137.635 30.1146 137.564 29.0848C137.5 27.9722 137.169 27.4189 136.448 27.268C136.103 27.1827 135.749 27.138 135.393 27.1348C135.264 27.1348 135.123 27.0815 135.123 26.9425C135.123 26.759 135.298 26.688 135.669 26.688C136.801 26.688 138.886 26.7738 139.043 26.7738C139.199 26.7738 141.319 26.688 142.315 26.688C142.702 26.688 142.858 26.759 142.858 26.9425C142.858 27.0815 142.723 27.1348 142.604 27.1348C142.321 27.1438 142.04 27.1765 141.763 27.2325C140.877 27.4011 140.598 27.9604 140.536 29.0848C140.475 30.1146 140.475 31.029 140.475 36.0772V41.7675" fill="white"/>
<path d="M158.859 50.4006C161.889 50.4006 168.137 48.6962 168.137 39.2892C168.137 31.5157 163.229 27.3405 157.932 27.3405C152.316 27.3405 148.117 30.8914 148.117 37.9724C148.117 45.5181 152.832 50.4006 158.852 50.4006M158.141 26.2367C165.714 26.2367 171.345 30.8381 171.345 38.369C171.345 45.6158 166.042 51.6079 157.954 51.6079C148.752 51.6079 144.937 44.7132 144.937 38.8838C144.937 33.6403 148.893 26.2397 158.141 26.2397" fill="white"/>
<path d="M71.3611 0L87.5896 15.6654L88.5557 14.7451L73.272 0H71.3611Z" fill="white"/>
<path d="M96.628 0H94.7048L88.7116 5.77317L89.6655 6.70232L96.628 0Z" fill="white"/>
<path d="M91.507 8.47481L100.295 0H98.3714L90.5439 7.55158L91.507 8.47481Z" fill="white"/>
<path d="M75.0067 0L89.4838 13.9669L90.4469 13.0348L76.9329 0H75.0067Z" fill="white"/>
<path d="M101.913 0L92.3251 9.27081L93.279 10.1911L103.833 0H101.913Z" fill="white"/>
<path d="M78.875 0L91.3615 12.0405L92.3245 11.1202L80.7981 0H78.875Z" fill="white"/>
<path d="M0 16.2393H81.8017L81.0625 15.3693H0V16.2393Z" fill="white"/>
<path d="M0 16.2393H81.8017L81.0625 15.3693H0V16.2393Z" fill="white"/>
<path d="M81.7986 15.3693H0V16.2423H81.7986V15.3693Z" fill="white"/>
<path d="M81.7986 15.3693H0V16.2423H81.7986V15.3693Z" fill="white"/>
<path d="M0 16.2393H81.8017L81.0625 15.3693H0V16.2393Z" fill="white"/>
<path d="M0 16.2393H81.8017L81.0625 15.3693H0V16.2393Z" fill="white"/>
<path d="M81.7986 15.3693H0V16.2423H81.7986V15.3693Z" fill="white"/>
<path d="M81.7986 15.3693H0V16.2423H81.7986V15.3693Z" fill="white"/>
<path d="M174.997 16.2393H93.1983L93.9375 15.3693H174.997V16.2393Z" fill="white"/>
<path d="M174.997 16.2393H93.1983L93.9375 15.3693H174.997V16.2393Z" fill="white"/>
<path d="M175 15.3693H93.1983V16.2423H175V15.3693Z" fill="white"/>
<path d="M175 15.3693H93.1983V16.2423H175V15.3693Z" fill="white"/>
<path d="M174.997 16.2393H93.1983L93.9375 15.3693H174.997V16.2393Z" fill="white"/>
<path d="M174.997 16.2393H93.1983L93.9375 15.3693H174.997V16.2393Z" fill="white"/>
<path d="M175 15.3693H93.1983V16.2423H175V15.3693Z" fill="white"/>
<path d="M175 15.3693H93.1983V16.2423H175V15.3693Z" fill="white"/>
<path d="M98.3839 66.8005C98.3616 67.5724 98.3842 68.345 98.4514 69.1145C98.4728 69.443 98.528 69.6353 98.8777 69.6738C99.0514 69.7075 99.2281 69.7243 99.4053 69.7241C99.4819 69.7241 99.4819 69.7803 99.4819 69.8158C99.4819 69.8513 99.4513 69.9194 99.2918 69.9194C98.6783 69.9194 97.9391 69.8779 97.8809 69.8779C97.8226 69.8779 97.0251 69.9194 96.7123 69.9194C96.562 69.9194 96.5221 69.9016 96.5221 69.8158C96.5221 69.7803 96.5405 69.7477 96.6233 69.7477C96.7266 69.7402 96.8291 69.7254 96.93 69.7034C97.1662 69.6501 97.2368 69.443 97.2797 69.1115C97.3165 68.6973 97.3165 67.8391 97.3165 66.7975V62.2879L95.6756 62.3352C94.967 62.353 94.691 62.4211 94.5162 62.6637C94.4414 62.7756 94.3787 62.8946 94.3291 63.0188C94.3107 63.1016 94.2861 63.1017 94.2279 63.1017C94.2168 63.1017 94.2059 63.0995 94.1958 63.0953C94.1858 63.0911 94.1767 63.0848 94.1692 63.0771C94.1617 63.0693 94.1559 63.0601 94.1523 63.0501C94.1487 63.04 94.1473 63.0294 94.1481 63.0188C94.1481 62.9123 94.3751 61.9506 94.3843 61.8647C94.3935 61.7789 94.4794 61.6635 94.51 61.6635C94.5407 61.6635 94.691 61.7346 95.0192 61.7967C95.3474 61.8588 95.789 61.8322 95.9087 61.8322H100.246C100.598 61.8322 100.859 61.8144 101.074 61.7967C101.288 61.7789 101.328 61.7346 101.381 61.7346C101.433 61.7346 101.427 61.7967 101.427 61.8647C101.427 62.1873 101.381 62.9774 101.381 63.0898C101.381 63.2023 101.335 63.2259 101.276 63.2259C101.218 63.2259 101.218 63.1815 101.218 63.0336L101.187 62.9241C101.163 62.5986 100.908 62.3589 99.8009 62.3323L98.3716 62.2849V66.8005" fill="white"/>
<path d="M65.3611 64.8354C65.3611 63.1251 65.3611 62.8203 65.3396 62.4681C65.3181 62.116 65.2261 61.9207 64.8488 61.8438C64.7223 61.8222 64.594 61.8113 64.4654 61.8112C64.4194 61.8112 64.3734 61.7905 64.3734 61.7461C64.3734 61.7017 64.4317 61.6574 64.5544 61.6574C65.0666 61.6574 65.7813 61.6899 65.8395 61.6899C65.9622 61.6899 66.8272 61.6574 67.1768 61.6574C67.8946 61.6574 68.6521 61.7225 69.2564 62.1397C69.493 62.3143 69.6862 62.5378 69.8215 62.7938C69.9569 63.0499 70.031 63.3319 70.0385 63.6192C70.0385 64.43 69.6858 65.2378 68.6644 66.1492C69.5846 67.2974 70.3667 68.2739 71.0261 68.9515C71.3777 69.3638 71.8685 69.6435 72.4125 69.7416C72.5586 69.7639 72.7063 69.7748 72.8542 69.7741C72.9125 69.7741 72.9554 69.8067 72.9554 69.8392C72.9554 69.8718 72.8879 69.928 72.6855 69.928H71.8788C71.4576 69.9682 71.0331 69.8955 70.6519 69.7179C70.1643 69.4664 69.7655 68.9308 69.1184 68.1082C68.6399 67.5163 68.1093 66.7736 67.8915 66.4895C67.8741 66.4673 67.8513 66.4494 67.8251 66.4376C67.7989 66.4257 67.7701 66.4202 67.7412 66.4215L66.3364 66.4126C66.2812 66.4126 66.2567 66.4452 66.2567 66.5014V66.7618C66.2567 67.8122 66.2567 68.6793 66.315 69.129C66.3487 69.4486 66.4162 69.6883 66.7566 69.7209C66.9161 69.7416 67.1646 69.7652 67.2688 69.7652C67.3731 69.7652 67.3578 69.7978 67.3578 69.8303C67.3578 69.8629 67.3026 69.9191 67.1768 69.9191C66.5634 69.9191 65.8365 69.8866 65.7813 69.8866C65.7261 69.8866 65.0543 69.9191 64.7139 69.9191C64.5881 69.9191 64.5329 69.8954 64.5329 69.8303C64.5329 69.7652 64.5544 69.7652 64.6219 69.7652C64.7365 69.7607 64.8505 69.7459 64.9623 69.7209C65.1893 69.6765 65.2476 69.4249 65.2905 69.129C65.3488 68.6704 65.3488 67.8034 65.3488 66.7618L65.3611 64.8354ZM66.2812 65.7882C66.2793 65.8117 66.2833 65.8353 66.2929 65.857C66.3025 65.8786 66.3175 65.8977 66.3364 65.9125C66.7188 66.0441 67.1239 66.1033 67.5296 66.0871C67.828 66.1032 68.1245 66.031 68.3792 65.88C68.7902 65.6166 69.0969 65.0248 69.0969 64.1992C69.0969 62.8292 68.3485 62.0095 67.1339 62.0095C66.8786 62.004 66.6235 62.0259 66.3732 62.0746C66.3453 62.0836 66.3211 62.1012 66.3045 62.1247C66.2879 62.1482 66.2797 62.1764 66.2812 62.2048V65.7882Z" fill="white"/>
<path d="M74.1651 64.8334C74.1651 63.1231 74.1651 62.8183 74.1436 62.4662C74.1221 62.114 74.0301 61.9187 73.6559 61.8418C73.5462 61.8254 73.4356 61.8145 73.3247 61.8093C73.248 61.8093 73.1775 61.7885 73.1775 61.7442C73.1775 61.6998 73.2357 61.6554 73.3615 61.6554C73.6222 61.6554 73.9289 61.6554 74.6436 61.6879C74.7233 61.6879 76.9808 61.6879 77.2445 61.6879C77.4209 61.6901 77.5966 61.6672 77.7659 61.6199C77.8034 61.5957 77.8467 61.5814 77.8917 61.5784C77.9254 61.5784 77.9346 61.6199 77.9346 61.6761C77.895 61.846 77.8653 62.0179 77.8457 62.191C77.8457 62.3537 77.8212 62.5638 77.7997 62.8479C77.7997 62.9574 77.7537 63.0343 77.7077 63.0343C77.6617 63.0343 77.6187 62.9781 77.6187 62.8923C77.6206 62.7696 77.6009 62.6476 77.5604 62.5313C77.4807 62.2798 77.2537 62.1673 76.7446 62.1259C76.5513 62.1022 75.3122 62.0933 75.1895 62.0933C75.1435 62.0933 75.119 62.1259 75.119 62.2028V65.224C75.119 65.301 75.119 65.3335 75.1895 65.3335C75.3367 65.3335 76.7231 65.3335 76.993 65.3128C77.2997 65.2891 77.447 65.2566 77.5604 65.1264C77.6187 65.0613 77.6525 65.0169 77.6985 65.0169C77.7445 65.0169 77.7537 65.0376 77.7537 65.1057C77.7537 65.1737 77.6985 65.3572 77.6617 65.7182C77.6249 66.0792 77.6279 66.31 77.6187 66.4609C77.6095 66.6118 77.5819 66.6266 77.539 66.6266C77.496 66.6266 77.4592 66.5379 77.4592 66.4521C77.4591 66.3518 77.4436 66.2521 77.4132 66.1562C77.3672 65.9934 77.2323 65.8395 76.8243 65.7951C76.5176 65.7626 75.3919 65.7419 75.1987 65.7419C75.1879 65.7404 75.1768 65.7414 75.1665 65.7447C75.1561 65.748 75.1467 65.7537 75.1389 65.7611C75.1312 65.7686 75.1254 65.7777 75.1219 65.7877C75.1184 65.7977 75.1174 65.8084 75.119 65.8188V66.7805C75.119 67.1534 75.119 68.4228 75.119 68.6536C75.1435 69.1034 75.211 69.3431 75.4932 69.4526C75.7996 69.539 76.1193 69.5731 76.4379 69.5532C76.7815 69.5654 77.1252 69.5315 77.4592 69.4526C77.8212 69.3431 77.9469 69.1152 78.0389 68.6418C78.0604 68.5234 78.0819 68.479 78.1401 68.479C78.1984 68.479 78.2076 68.5678 78.2076 68.6418C78.1779 68.9981 78.1288 69.3527 78.0604 69.7041C77.9807 70 77.8917 70 77.447 70C76.6066 70 76.2201 69.9763 75.7907 69.9674C75.3613 69.9586 74.8122 69.9349 74.3706 69.9349C74.0976 69.9349 73.8246 69.9763 73.5302 69.9674C73.4044 69.9674 73.3492 69.9438 73.3492 69.8787C73.3492 69.8136 73.4044 69.8225 73.475 69.8136C73.5626 69.8092 73.6498 69.7984 73.7357 69.781C73.9749 69.7248 74.1221 69.5709 74.1436 68.7513C74.1436 68.3252 74.1651 67.7659 74.1651 66.7894V64.8334Z" fill="white"/>
<path d="M82.0495 66.7075C82.0234 66.7075 81.998 66.7159 81.9774 66.7315C81.9568 66.747 81.9422 66.7688 81.936 66.7933L81.2551 68.7345C81.1597 68.9688 81.1058 69.2168 81.0956 69.4684C81.1002 69.5152 81.1145 69.5608 81.1376 69.6022C81.1607 69.6437 81.1922 69.6803 81.2302 69.7098C81.2683 69.7394 81.3121 69.7612 81.359 69.7741C81.406 69.787 81.4551 69.7907 81.5036 69.785H81.6048C81.7183 69.785 81.7551 69.8057 81.7551 69.8501C81.7551 69.8945 81.6508 69.9388 81.5496 69.9388C81.2766 69.9388 80.8227 69.9063 80.6969 69.9063C80.5712 69.9063 79.9485 69.9388 79.4148 69.9388C79.2676 69.9388 79.2001 69.9152 79.2001 69.8501C79.2001 69.785 79.2553 69.785 79.3565 69.785C79.448 69.7826 79.5391 69.7747 79.6295 69.7613C80.154 69.6962 80.381 69.2819 80.5834 68.7345L83.1629 61.9286C83.2979 61.5676 83.3439 61.4995 83.4114 61.4995C83.4788 61.4995 83.5248 61.5558 83.6598 61.8961C83.8316 62.3103 85.6136 66.8348 86.3068 68.5007C86.7147 69.4743 87.046 69.6518 87.2821 69.7169C87.4263 69.7593 87.5761 69.7812 87.7269 69.782C87.7944 69.782 87.8496 69.782 87.8496 69.8471C87.8496 69.9122 87.7484 69.9359 87.6226 69.9359C87.4968 69.9359 86.6227 69.9359 85.8406 69.9122C85.6259 69.9122 85.5001 69.9122 85.5001 69.8353C85.5001 69.7583 85.5338 69.7702 85.5799 69.7583C85.6259 69.7465 85.7148 69.64 85.6473 69.4624L84.5922 66.7667C84.5848 66.7462 84.5705 66.7287 84.5517 66.7169C84.5328 66.7051 84.5103 66.6997 84.4879 66.7016L82.0495 66.7075ZM84.3438 66.311C84.399 66.311 84.399 66.2785 84.3867 66.237L83.3101 63.278C83.2519 63.1152 83.1936 63.1152 83.1384 63.278L82.1385 66.237C82.117 66.2903 82.1385 66.311 82.1722 66.311H84.3438Z" fill="white"/>
<path d="M90.6723 66.7998C90.6723 68.4096 90.7183 69.1109 90.9208 69.3062C91.1232 69.5015 91.3993 69.5577 92.2826 69.5577C92.896 69.5577 93.3837 69.5577 93.6567 69.2292C93.8109 69.0365 93.916 68.8115 93.9634 68.5723C93.9634 68.4865 93.9972 68.4303 94.0646 68.4303C94.1321 68.4303 94.1321 68.4747 94.1321 68.596C94.1049 68.9646 94.0485 69.3306 93.9634 69.6909C93.8837 69.9424 93.8469 69.9868 93.2457 69.9868C92.2703 69.9868 91.3042 69.9217 90.2031 69.9217C89.8503 69.9217 89.5129 69.9542 89.0897 69.9542C88.967 69.9542 88.9087 69.9305 88.9087 69.8654C88.9087 69.8003 88.9333 69.8003 89.0007 69.8003C89.1154 69.7958 89.2294 69.781 89.3412 69.756C89.5682 69.7116 89.6264 69.46 89.6694 69.1641C89.7277 68.7055 89.7276 67.8385 89.7276 66.7969V64.8705C89.7276 63.1602 89.7277 62.8554 89.7031 62.5032C89.6786 62.1511 89.5896 61.9558 89.2154 61.8789C89.0878 61.8571 88.9585 61.8462 88.829 61.8463C88.786 61.8463 88.74 61.8256 88.74 61.7812C88.74 61.7368 88.7952 61.6925 88.921 61.6925C89.4332 61.6925 90.1479 61.725 90.2031 61.725C90.2583 61.725 91.0895 61.6925 91.4299 61.6925C91.5557 61.6925 91.6109 61.7161 91.6109 61.7812C91.6109 61.8463 91.568 61.8463 91.5219 61.8463C91.3956 61.8493 91.2696 61.8601 91.1447 61.8789C90.8165 61.9351 90.7275 62.1215 90.703 62.5032C90.6785 62.885 90.6815 63.1602 90.6815 64.8705L90.6723 66.7998Z" fill="white"/>
<path d="M98.2943 66.7612C98.2943 67.8117 98.2943 68.6787 98.3495 69.1285C98.3833 69.448 98.4507 69.6877 98.7912 69.7203C98.9507 69.741 99.2022 69.7647 99.3034 69.7647C99.4046 69.7647 99.3954 69.7972 99.3954 69.8298C99.3954 69.8623 99.3372 69.9185 99.2145 69.9185C98.601 69.9185 97.8741 69.886 97.8158 69.886C97.7576 69.886 97.0429 69.9185 96.7055 69.9185C96.5798 69.9185 96.5215 69.8949 96.5215 69.8298C96.5215 69.7647 96.546 69.7647 96.6135 69.7647C96.7282 69.7599 96.8421 69.745 96.954 69.7203C97.1809 69.6759 97.2361 69.4244 97.2822 69.1285C97.3404 68.6698 97.3404 67.8028 97.3404 66.7612V62.1273C96.7822 62.1273 96.2148 62.1273 95.6596 62.1509C94.9542 62.1509 94.6843 62.2368 94.5002 62.5001C94.4249 62.6075 94.3602 62.7214 94.307 62.8404C94.2733 62.9292 94.2395 62.9499 94.1935 62.9499C94.1475 62.9499 94.1383 62.9174 94.1383 62.8522C94.1383 62.7428 94.3653 61.7988 94.3867 61.713C94.4082 61.6272 94.4542 61.5029 94.5002 61.5029C94.6608 61.5662 94.8286 61.6109 95.0002 61.6361C95.3314 61.6686 95.7608 61.6893 95.8989 61.6893H100.156C100.426 61.6942 100.696 61.6764 100.963 61.6361C101.131 61.6124 101.233 61.5798 101.269 61.5798C101.306 61.5798 101.328 61.6479 101.328 61.713C101.328 62.0415 101.294 62.796 101.294 62.9174C101.294 63.0387 101.26 63.0594 101.214 63.0594C101.168 63.0594 101.135 63.0268 101.122 62.873C101.122 62.8286 101.122 62.796 101.122 62.7516C101.089 62.4232 100.816 62.1598 99.7267 62.1598C99.2513 62.1598 98.7728 62.1598 98.2974 62.1362L98.2943 66.7612Z" fill="white"/>
<path d="M106.063 67.0956C106.08 66.6967 105.99 66.3004 105.803 65.9445C105.723 65.7699 104.202 63.3612 103.803 62.7901C103.598 62.4778 103.338 62.2032 103.033 61.9794C102.887 61.8841 102.72 61.8242 102.545 61.8048C102.487 61.8048 102.429 61.7841 102.429 61.7278C102.429 61.6716 102.475 61.6509 102.579 61.6509C102.794 61.6509 103.643 61.6834 103.702 61.6834C103.76 61.6834 104.214 61.6509 104.656 61.6509C104.781 61.6509 104.803 61.6834 104.803 61.7278C104.803 61.7722 104.735 61.7841 104.634 61.8284C104.592 61.843 104.555 61.8693 104.528 61.9041C104.502 61.9389 104.486 61.9805 104.484 62.0237C104.497 62.1764 104.549 62.3237 104.634 62.4528C104.815 62.7694 106.517 65.5954 106.723 65.912C106.938 65.4533 108.379 63.0535 108.606 62.6925C108.723 62.527 108.79 62.3334 108.799 62.1332C108.799 61.9794 108.753 61.861 108.618 61.8373C108.483 61.8136 108.447 61.7811 108.447 61.7249C108.447 61.6687 108.517 61.6598 108.631 61.6598C108.937 61.6598 109.287 61.6923 109.379 61.6923C109.471 61.6923 110.265 61.6598 110.48 61.6598C110.56 61.6598 110.627 61.6834 110.627 61.7249C110.627 61.7663 110.572 61.8136 110.48 61.8136C110.296 61.8209 110.116 61.8739 109.959 61.9675C109.718 62.1126 109.509 62.3027 109.345 62.5268C108.553 63.6465 107.828 64.8094 107.174 66.0096C107.038 66.359 106.98 66.7321 107.005 67.1045V68.0455C107.005 68.223 107.005 68.6817 107.039 69.1403C107.06 69.4599 107.165 69.6996 107.505 69.7321C107.665 69.7529 107.913 69.7765 108.014 69.7765C108.115 69.7765 108.106 69.8091 108.106 69.8416C108.106 69.8742 108.051 69.9304 107.925 69.9304C107.312 69.9304 106.585 69.8979 106.527 69.8979C106.468 69.8979 105.757 69.9304 105.416 69.9304C105.291 69.9304 105.235 69.9067 105.235 69.8416C105.235 69.7765 105.257 69.7765 105.324 69.7765C105.439 69.7721 105.553 69.7573 105.665 69.7321C105.892 69.6878 105.996 69.4362 106.017 69.1403C106.051 68.6817 106.051 68.223 106.051 68.0455L106.063 67.0956Z" fill="white"/>
</svg>
