<svg width="32" height="32" viewBox="0 0 32 32" fill="none" xmlns="http://www.w3.org/2000/svg">
<path d="M11.293 5.29279C11.1055 5.48031 11.0002 5.73462 11.0002 5.99979C11.0002 6.26495 11.1055 6.51926 11.293 6.70679L20.586 15.9998L11.293 25.2928C11.1108 25.4814 11.01 25.734 11.0123 25.9962C11.0146 26.2584 11.1197 26.5092 11.3052 26.6946C11.4906 26.88 11.7414 26.9852 12.0036 26.9875C12.2658 26.9897 12.5184 26.8889 12.707 26.7068L22.707 16.7068C22.8944 16.5193 22.9998 16.265 22.9998 15.9998C22.9998 15.7346 22.8944 15.4803 22.707 15.2928L12.707 5.29279C12.5194 5.10532 12.2651 5 12 5C11.7348 5 11.4805 5.10532 11.293 5.29279Z" fill="#1E1E1E"/>
</svg>
