<svg width="24" height="24" viewBox="0 0 24 24" fill="none" xmlns="http://www.w3.org/2000/svg">
<rect width="24" height="24" fill="white"/>
<path d="M8.058 19.817C7.99995 19.7589 7.95389 19.69 7.92247 19.6142C7.89105 19.5383 7.87488 19.4571 7.87488 19.375C7.87488 19.2929 7.89105 19.2116 7.92247 19.1357C7.95389 19.0599 7.99995 18.991 8.058 18.933L14.991 12L8.058 5.06696C7.94077 4.94973 7.87492 4.79074 7.87492 4.62496C7.87492 4.54287 7.89109 4.46159 7.9225 4.38575C7.95391 4.30991 7.99996 4.241 8.058 4.18296C8.11604 4.12492 8.18495 4.07887 8.26079 4.04746C8.33663 4.01605 8.41791 3.99988 8.5 3.99988C8.66578 3.99988 8.82477 4.06573 8.942 4.18296L16.317 11.558C16.3751 11.616 16.4211 11.6849 16.4525 11.7607C16.4839 11.8366 16.5001 11.9179 16.5001 12C16.5001 12.0821 16.4839 12.1633 16.4525 12.2392C16.4211 12.315 16.3751 12.3839 16.317 12.442L8.942 19.817C8.88396 19.875 8.81505 19.9211 8.73921 19.9525C8.66338 19.9839 8.58209 20.0001 8.5 20.0001C8.41791 20.0001 8.33662 19.9839 8.26079 19.9525C8.18495 19.9211 8.11604 19.875 8.058 19.817Z" fill="#1E1E1E"/>
</svg>
