<svg width="24" height="24" viewBox="0 0 24 24" fill="none" xmlns="http://www.w3.org/2000/svg">
<path fill-rule="evenodd" clip-rule="evenodd" d="M3 7.625C3 7.27982 3.27982 7 3.625 7H20.625C20.9702 7 21.25 7.27982 21.25 7.625C21.25 7.97018 20.9702 8.25 20.625 8.25H3.625C3.27982 8.25 3 7.97018 3 7.625ZM6 12.125C6 11.7798 6.27982 11.5 6.625 11.5H17.625C17.9702 11.5 18.25 11.7798 18.25 12.125C18.25 12.4702 17.9702 12.75 17.625 12.75H6.625C6.27982 12.75 6 12.4702 6 12.125ZM3 16.625C3 16.2798 3.27982 16 3.625 16H20.625C20.9702 16 21.25 16.2798 21.25 16.625C21.25 16.9702 20.9702 17.25 20.625 17.25H3.625C3.27982 17.25 3 16.9702 3 16.625Z" fill="#1E1E1E"/>
</svg>
