<svg width="40" height="40" viewBox="0 0 40 40" fill="none" xmlns="http://www.w3.org/2000/svg">
<rect x="0.5" y="0.5" width="39" height="39" rx="19.5" stroke="white"/>
<path d="M27.5525 10.9969C27.3118 11.0148 27.0755 11.0713 26.8528 11.1642H26.8498C26.636 11.2489 25.6198 11.6764 24.0748 12.3244L18.5383 14.6562C14.5655 16.3287 10.6603 17.9757 10.6603 17.9757L10.7068 17.9577C10.7068 17.9577 10.4375 18.0462 10.1563 18.2389C9.98213 18.349 9.83252 18.4938 9.71678 18.6642C9.57878 18.8667 9.46778 19.1764 9.50903 19.4967C9.57653 20.0382 9.92753 20.3629 10.1795 20.5422C10.4345 20.7237 10.6775 20.8084 10.6775 20.8084H10.6835L14.3458 22.0422C14.51 22.5694 15.4618 25.6984 15.6905 26.4192C15.8255 26.8497 15.9568 27.1189 16.121 27.3244C16.1995 27.4294 16.2943 27.5172 16.4053 27.5877C16.4629 27.6223 16.525 27.6491 16.5898 27.6672L16.5523 27.6582C16.5635 27.6612 16.5725 27.6702 16.5808 27.6732C16.6108 27.6814 16.631 27.6844 16.6693 27.6904C17.249 27.8659 17.7148 27.5059 17.7148 27.5059L17.741 27.4849L19.9033 25.5162L23.5273 28.2964L23.6098 28.3317C24.365 28.6632 25.13 28.4787 25.5343 28.1532C25.9415 27.8254 26.0998 27.4062 26.0998 27.4062L26.126 27.3387L28.9265 12.9919C29.006 12.6379 29.0263 12.3064 28.9385 11.9847C28.8485 11.6588 28.6395 11.3786 28.3528 11.1994C28.1124 11.0532 27.8336 10.9826 27.5525 10.9969ZM27.4768 12.5344C27.4738 12.5817 27.4828 12.5764 27.4618 12.6672V12.6754L24.6875 26.8729C24.6755 26.8932 24.6553 26.9374 24.5998 26.9817C24.5413 27.0282 24.4948 27.0574 24.251 26.9607L19.8185 23.5624L17.141 26.0029L17.7035 22.4104L24.9455 15.6604C25.244 15.3829 25.1443 15.3244 25.1443 15.3244C25.1653 14.9839 24.6935 15.2247 24.6935 15.2247L15.5615 20.8819L15.5585 20.8669L11.1815 19.3932V19.3902L11.1703 19.3879L11.1928 19.3789L11.2168 19.3669L11.24 19.3587C11.24 19.3587 15.1483 17.7117 19.121 16.0392C21.11 15.2014 23.114 14.3577 24.6553 13.7067C25.5693 13.3219 26.4843 12.9394 27.4003 12.5592C27.4618 12.5352 27.4325 12.5344 27.4768 12.5344Z" fill="white"/>
</svg>
