<svg width="40" height="40" viewBox="0 0 40 40" fill="none" xmlns="http://www.w3.org/2000/svg">
<rect x="0.5" y="0.5" width="39" height="39" rx="19.5" stroke="white"/>
<path d="M16.886 15.17C17.069 15.175 17.272 15.185 17.465 15.613C17.593 15.898 17.808 16.423 17.984 16.851C18.121 17.184 18.233 17.458 18.261 17.514C18.325 17.642 18.365 17.789 18.281 17.962L18.253 18.02C18.1961 18.1546 18.1185 18.2795 18.023 18.39L17.88 18.56C17.795 18.664 17.71 18.766 17.638 18.838C17.509 18.966 17.376 19.104 17.524 19.36C17.672 19.616 18.192 20.458 18.959 21.137C19.52 21.643 20.1636 22.0489 20.862 22.337C20.932 22.367 20.9886 22.3924 21.032 22.413C21.289 22.541 21.442 22.521 21.59 22.349C21.739 22.176 22.233 21.6 22.407 21.344C22.575 21.088 22.747 21.128 22.985 21.216C23.223 21.305 24.489 21.926 24.746 22.053L24.889 22.123C25.068 22.208 25.189 22.267 25.241 22.353C25.305 22.462 25.305 22.973 25.093 23.575C24.875 24.175 23.826 24.751 23.351 24.795L23.216 24.811C22.78 24.863 22.228 24.931 20.26 24.156C17.834 23.202 16.233 20.836 15.91 20.357L15.857 20.281L15.851 20.273C15.704 20.076 14.803 18.871 14.803 17.627C14.803 16.437 15.39 15.817 15.657 15.535L15.704 15.485C15.7904 15.3874 15.896 15.3086 16.0142 15.2536C16.1324 15.1985 16.2606 15.1684 16.391 15.165C16.564 15.165 16.738 15.165 16.886 15.17Z" fill="white"/>
<path fill-rule="evenodd" clip-rule="evenodd" d="M10.184 29.331C10.1651 29.3988 10.1645 29.4704 10.1822 29.5385C10.1998 29.6066 10.2351 29.6689 10.2845 29.719C10.3339 29.7691 10.3957 29.8053 10.4635 29.8239C10.5314 29.8425 10.6029 29.8429 10.671 29.825L15.278 28.621C16.7397 29.4128 18.3757 29.8276 20.038 29.828H20.042C25.528 29.828 30 25.382 30 19.916C30.0034 18.6126 29.7475 17.3215 29.2472 16.1179C28.7469 14.9142 28.0123 13.8221 27.086 12.905C26.1613 11.9805 25.0629 11.2478 23.854 10.7493C22.6451 10.2507 21.3496 9.9961 20.042 10C14.556 10 10.084 14.446 10.084 19.911C10.084 21.65 10.542 23.358 11.414 24.865L10.184 29.331ZM12.861 25.263C12.9139 25.0711 12.928 24.8706 12.9026 24.6732C12.8772 24.4757 12.8127 24.2853 12.713 24.113C11.9741 22.8358 11.5847 21.3866 11.584 19.911C11.584 15.281 15.377 11.5 20.042 11.5C22.312 11.5 24.43 12.377 26.028 13.968C26.8142 14.7458 27.4377 15.6722 27.8622 16.6934C28.2866 17.7147 28.5034 18.8102 28.5 19.916C28.5 24.546 24.707 28.328 20.042 28.328H20.037C18.6247 28.3273 17.2348 27.9747 15.993 27.302C15.6583 27.1208 15.2672 27.0737 14.899 27.17L12.137 27.891L12.861 25.263Z" fill="white"/>
</svg>
