<svg width="1459" height="204" viewBox="0 0 1459 204" fill="none" xmlns="http://www.w3.org/2000/svg">
<g opacity="0.03">
<path d="M0 3.38121H29.8767L96.2695 165.68H97.376L161.832 3.38121H176.217L97.6527 200.619H81.0545L0 3.38121Z" fill="white"/>
<path d="M239.917 3.38121H265.091V200.619H239.917V3.38121Z" fill="white"/>
<path d="M353.652 200.619V3.38121H378.825V185.122H478.691V200.619H353.652Z" fill="white"/>
<path d="M531.131 200.619V3.38121H556.305V185.122H656.171V200.619H531.131Z" fill="white"/>
<path d="M816.222 142.575H720.783L696.439 200.619H683.713L765.598 3.38121H779.43L869.613 200.619H842.779L816.222 142.575ZM810.413 129.895L766.981 34.9392H765.874L726.039 129.895H810.413Z" fill="white"/>
<path d="M1098.51 112.707V200.619H1074.72V189.066C1067.71 192.823 1058.86 196.298 1048.16 199.492C1037.46 202.497 1025.2 204 1011.37 204C992.925 204 977.065 201.088 963.786 195.265C950.508 189.254 939.534 181.365 930.866 171.597C922.383 161.641 916.02 150.464 911.778 138.066C907.721 125.481 905.693 112.519 905.693 99.1823C905.693 83.5912 908.367 69.6906 913.715 57.4807C919.063 45.0829 926.532 34.6575 936.122 26.2044C945.713 17.7514 957.055 11.2707 970.149 6.76243C983.427 2.25414 997.905 0 1013.58 0C1027.23 0 1039.03 1.59668 1048.99 4.79004C1059.13 7.79557 1067.62 11.5525 1074.44 16.0608C1081.26 20.5691 1086.61 25.453 1090.49 30.7127C1094.54 35.7845 1097.4 40.3867 1099.06 44.5193H1079.14C1078.04 40.5746 1075.55 36.7238 1071.67 32.9668C1067.99 29.0221 1063.19 25.547 1057.29 22.5414C1051.39 19.5359 1044.66 17.0939 1037.09 15.2155C1029.53 13.337 1021.42 12.3978 1012.75 12.3978C999.657 12.3978 988.13 14.558 978.171 18.8784C968.397 23.1989 960.098 29.3039 953.274 37.1934C946.45 45.0829 941.286 54.4751 937.782 65.3702C934.463 76.2652 932.803 88.1934 932.803 101.155C932.803 114.304 934.555 126.42 938.059 137.503C941.747 148.398 947.188 157.884 954.381 165.961C961.573 173.851 970.61 180.05 981.491 184.558C992.372 189.066 1005.1 191.32 1019.67 191.32C1030.73 191.32 1040.6 190.006 1049.27 187.376C1057.93 184.746 1066.42 180.707 1074.72 175.26V124.26H1043.73V112.707H1098.51Z" fill="white"/>
<path d="M1170.54 3.38121H1195.71V200.619H1170.54V3.38121Z" fill="white"/>
<path d="M1247.37 102C1247.37 91.2928 1249.31 79.9282 1253.18 67.9061C1257.24 55.884 1263.51 44.895 1271.99 34.9392C1280.48 24.7956 1291.27 16.4365 1304.36 9.86187C1317.45 3.28729 1333.13 0 1351.39 0C1369.83 0 1385.78 3.38121 1399.25 10.1436C1412.89 16.7182 1424.14 25.0773 1433 35.221C1441.85 45.3646 1448.4 56.4475 1452.64 68.4696C1456.88 80.3039 1459 91.4807 1459 102C1459 108.95 1457.99 116.276 1455.96 123.978C1454.11 131.68 1451.25 139.381 1447.38 147.083C1443.69 154.597 1438.9 161.829 1433 168.779C1427.09 175.541 1420.09 181.552 1411.97 186.812C1404.04 192.072 1395 196.298 1384.86 199.492C1374.9 202.497 1363.74 204 1351.39 204C1333.13 204 1317.45 200.713 1304.36 194.138C1291.27 187.376 1280.48 178.923 1271.99 168.779C1263.51 158.635 1257.24 147.646 1253.18 135.812C1249.31 123.79 1247.37 112.519 1247.37 102ZM1274.48 102C1274.48 115.149 1276.42 127.265 1280.29 138.348C1284.35 149.243 1289.79 158.635 1296.61 166.525C1303.62 174.414 1311.83 180.613 1321.24 185.122C1330.64 189.442 1340.88 191.602 1351.94 191.602C1362.82 191.602 1373.06 189.442 1382.65 185.122C1392.42 180.613 1400.91 174.414 1408.1 166.525C1415.48 158.635 1421.29 149.243 1425.53 138.348C1429.77 127.265 1431.89 115.149 1431.89 102C1431.89 88.8508 1429.77 76.8287 1425.53 65.9337C1421.29 54.8508 1415.48 45.3646 1408.1 37.4751C1400.91 29.5856 1392.42 23.4807 1382.65 19.1602C1373.06 14.6519 1362.82 12.3978 1351.94 12.3978C1340.88 12.3978 1330.64 14.6519 1321.24 19.1602C1311.83 23.4807 1303.62 29.5856 1296.61 37.4751C1289.79 45.3646 1284.35 54.8508 1280.29 65.9337C1276.42 76.8287 1274.48 88.8508 1274.48 102Z" fill="white"/>
<path d="M1293.83 111.278V94.4404H1296.39L1303.13 105.613L1302.1 105.625L1308.6 94.4404H1311.11V111.278H1308.53L1308.56 98.0243L1309.07 98.2047L1303.45 107.646H1301.51L1295.79 98.2047L1296.21 98.0243L1296.25 111.278H1293.83Z" fill="white"/>
<path d="M1324.5 111.639C1323.26 111.639 1322.11 111.418 1321.04 110.977C1319.99 110.528 1319.07 109.907 1318.28 109.113C1317.5 108.319 1316.89 107.389 1316.45 106.323C1316.02 105.256 1315.8 104.102 1315.8 102.859C1315.8 101.608 1316.02 100.45 1316.45 99.3833C1316.89 98.317 1317.5 97.3869 1318.28 96.5931C1319.07 95.7994 1319.99 95.182 1321.04 94.741C1322.11 94.3001 1323.26 94.0796 1324.5 94.0796C1325.74 94.0796 1326.89 94.3041 1327.94 94.7531C1328.99 95.2021 1329.92 95.8274 1330.7 96.6292C1331.49 97.431 1332.1 98.3651 1332.53 99.4314C1332.97 100.49 1333.19 101.632 1333.19 102.859C1333.19 104.102 1332.97 105.256 1332.53 106.323C1332.1 107.389 1331.49 108.319 1330.7 109.113C1329.92 109.907 1328.99 110.528 1327.94 110.977C1326.89 111.418 1325.74 111.639 1324.5 111.639ZM1324.5 109.089C1325.34 109.089 1326.11 108.945 1326.83 108.656C1327.55 108.359 1328.18 107.938 1328.72 107.393C1329.25 106.84 1329.67 106.182 1329.97 105.421C1330.28 104.651 1330.43 103.797 1330.43 102.859C1330.43 101.6 1330.17 100.506 1329.64 99.5758C1329.12 98.6377 1328.41 97.9121 1327.51 97.3989C1326.62 96.8858 1325.61 96.6292 1324.5 96.6292C1323.67 96.6292 1322.89 96.7776 1322.17 97.0742C1321.45 97.3629 1320.82 97.7798 1320.28 98.325C1319.74 98.8702 1319.32 99.5277 1319.01 100.297C1318.71 101.059 1318.56 101.913 1318.56 102.859C1318.56 104.118 1318.83 105.216 1319.36 106.154C1319.88 107.084 1320.59 107.806 1321.48 108.319C1322.38 108.832 1323.39 109.089 1324.5 109.089Z" fill="white"/>
<path d="M1343.26 111.639C1342.11 111.639 1341 111.474 1339.9 111.145C1338.82 110.809 1337.9 110.328 1337.15 109.702L1338.45 107.646C1338.84 107.99 1339.3 108.287 1339.82 108.536C1340.35 108.784 1340.91 108.977 1341.5 109.113C1342.09 109.241 1342.68 109.305 1343.27 109.305C1344.35 109.305 1345.22 109.097 1345.88 108.68C1346.55 108.263 1346.88 107.654 1346.88 106.852C1346.88 106.251 1346.65 105.741 1346.2 105.325C1345.75 104.908 1344.91 104.523 1343.69 104.17L1341.99 103.665C1340.43 103.208 1339.3 102.602 1338.58 101.849C1337.87 101.095 1337.52 100.157 1337.52 99.0346C1337.52 98.2889 1337.66 97.6154 1337.95 97.0141C1338.25 96.4127 1338.67 95.8916 1339.21 95.4506C1339.75 95.0096 1340.39 94.6729 1341.12 94.4404C1341.85 94.2079 1342.65 94.0916 1343.53 94.0916C1344.64 94.0916 1345.67 94.256 1346.62 94.5847C1347.57 94.9134 1348.36 95.3544 1348.98 95.9076L1347.64 97.9041C1347.3 97.5914 1346.9 97.3228 1346.44 97.0983C1346 96.8738 1345.51 96.7014 1344.99 96.5811C1344.47 96.4609 1343.94 96.4007 1343.41 96.4007C1342.75 96.4007 1342.16 96.5009 1341.65 96.7014C1341.15 96.8938 1340.75 97.1744 1340.47 97.5433C1340.19 97.9121 1340.04 98.3611 1340.04 98.8903C1340.04 99.2751 1340.14 99.6118 1340.33 99.9005C1340.52 100.189 1340.84 100.454 1341.3 100.694C1341.76 100.927 1342.4 101.163 1343.21 101.404L1345 101.945C1346.53 102.402 1347.65 102.999 1348.36 103.737C1349.07 104.467 1349.42 105.417 1349.42 106.587C1349.42 107.59 1349.18 108.472 1348.69 109.233C1348.21 109.987 1347.51 110.576 1346.59 111.001C1345.66 111.426 1344.55 111.639 1343.26 111.639Z" fill="white"/>
<path d="M1361.65 111.639C1359.93 111.639 1358.43 111.278 1357.15 110.556C1355.87 109.835 1354.87 108.816 1354.15 107.501C1353.44 106.178 1353.09 104.635 1353.09 102.871C1353.09 101.588 1353.3 100.414 1353.72 99.3473C1354.14 98.2729 1354.74 97.3428 1355.5 96.5571C1356.27 95.7713 1357.18 95.162 1358.23 94.729C1359.27 94.2961 1360.42 94.0796 1361.67 94.0796C1362.93 94.0796 1364.02 94.2399 1364.93 94.5606C1365.85 94.8814 1366.66 95.3384 1367.34 95.9317L1365.97 98.1326C1365.45 97.6435 1364.85 97.2787 1364.15 97.0381C1363.46 96.7976 1362.7 96.6773 1361.86 96.6773C1360.94 96.6773 1360.11 96.8217 1359.37 97.1103C1358.63 97.3989 1358 97.8119 1357.47 98.349C1356.95 98.8782 1356.55 99.5237 1356.27 100.285C1355.99 101.039 1355.85 101.893 1355.85 102.847C1355.85 104.146 1356.1 105.256 1356.6 106.178C1357.1 107.1 1357.81 107.806 1358.72 108.295C1359.64 108.776 1360.73 109.017 1361.98 109.017C1362.82 109.017 1363.62 108.892 1364.39 108.644C1365.17 108.387 1365.9 107.974 1366.57 107.405L1367.8 109.678C1367.01 110.312 1366.1 110.797 1365.07 111.133C1364.06 111.47 1362.92 111.639 1361.65 111.639Z" fill="white"/>
<path d="M1379.35 111.639C1378.11 111.639 1376.96 111.418 1375.89 110.977C1374.84 110.528 1373.92 109.907 1373.13 109.113C1372.35 108.319 1371.74 107.389 1371.3 106.323C1370.87 105.256 1370.65 104.102 1370.65 102.859C1370.65 101.608 1370.87 100.45 1371.3 99.3833C1371.74 98.317 1372.35 97.3869 1373.13 96.5931C1373.92 95.7994 1374.84 95.182 1375.89 94.741C1376.96 94.3001 1378.11 94.0796 1379.35 94.0796C1380.59 94.0796 1381.73 94.3041 1382.79 94.7531C1383.84 95.2021 1384.76 95.8274 1385.55 96.6292C1386.34 97.431 1386.95 98.3651 1387.38 99.4314C1387.82 100.49 1388.04 101.632 1388.04 102.859C1388.04 104.102 1387.82 105.256 1387.38 106.323C1386.95 107.389 1386.34 108.319 1385.55 109.113C1384.76 109.907 1383.84 110.528 1382.79 110.977C1381.73 111.418 1380.59 111.639 1379.35 111.639ZM1379.35 109.089C1380.19 109.089 1380.96 108.945 1381.68 108.656C1382.4 108.359 1383.03 107.938 1383.57 107.393C1384.1 106.84 1384.52 106.182 1384.82 105.421C1385.13 104.651 1385.28 103.797 1385.28 102.859C1385.28 101.6 1385.02 100.506 1384.49 99.5758C1383.97 98.6377 1383.26 97.9121 1382.36 97.3989C1381.47 96.8858 1380.46 96.6292 1379.35 96.6292C1378.52 96.6292 1377.74 96.7776 1377.01 97.0742C1376.3 97.3629 1375.67 97.7798 1375.13 98.325C1374.59 98.8702 1374.17 99.5277 1373.86 100.297C1373.56 101.059 1373.41 101.913 1373.41 102.859C1373.41 104.118 1373.68 105.216 1374.2 106.154C1374.73 107.084 1375.44 107.806 1376.33 108.319C1377.23 108.832 1378.23 109.089 1379.35 109.089Z" fill="white"/>
<path d="M1395.75 111.278L1390.77 94.4404H1393.54L1397.14 107.537L1400.92 94.4404H1403.67L1407.43 107.525L1411.03 94.4404H1413.72L1408.76 111.278H1405.96L1402.27 98.4813L1398.54 111.278H1395.75Z" fill="white"/>
</g>
</svg>
