<svg width="184" height="57" viewBox="0 0 184 57" fill="none" xmlns="http://www.w3.org/2000/svg">
<rect width="51.0557" height="39.6" transform="translate(0.39917)" fill="#C10A27"/>
<path d="M5.1853 11.0884L25.9181 31.6804L27.1501 30.4688L7.62655 11.0884H5.1853Z" fill="white"/>
<path d="M37.4652 11.0884H35.0056L27.351 18.6751L28.5701 19.8987L37.4652 11.0884Z" fill="white"/>
<path d="M30.917 22.229L42.1436 11.0884H39.6841L29.6882 21.0152L30.917 22.229Z" fill="white"/>
<path d="M9.83866 11.0884L28.3315 29.4485L29.5615 28.2226L12.3007 11.0884H9.83866Z" fill="white"/>
<path d="M44.2156 11.0884L31.9673 23.2713L33.1861 24.4836L46.6681 11.0884H44.2156Z" fill="white"/>
<path d="M14.7853 11.0884L30.734 26.9163L31.9665 25.7036L17.2449 11.0884H14.7853Z" fill="white"/>
<path fill-rule="evenodd" clip-rule="evenodd" d="M25.927 56.9996L0.39917 39.5996H9.97211L47.2805 42.4449L25.927 56.9996Z" fill="#C10A27"/>
<rect width="131.944" height="39.6" transform="translate(51.4548)" fill="#C10A27"/>
<path d="M69.3028 19.732V25.3H67.8468V14.1H69.3028V18.996H76.0068V14.1H77.4628V25.3H76.0068V19.732H69.3028ZM87.5239 22.004H82.0039L80.5959 25.3H79.8599L84.5959 14.1H85.3959L90.6119 25.3H89.0599L87.5239 22.004ZM87.1879 21.284L84.6759 15.892H84.6119L82.3079 21.284H87.1879ZM105.899 14.1H107.371V25.3H93.0186V14.1H94.4746V24.42H99.4666V14.1H100.923V24.42H105.899V14.1ZM115.68 19.7C115.68 19.092 115.792 18.4467 116.016 17.764C116.251 17.0814 116.613 16.4574 117.104 15.892C117.595 15.316 118.219 14.8414 118.976 14.468C119.733 14.0947 120.64 13.908 121.696 13.908C122.763 13.908 123.685 14.1 124.464 14.484C125.253 14.8574 125.904 15.332 126.416 15.908C126.928 16.484 127.307 17.1134 127.552 17.796C127.797 18.468 127.92 19.1027 127.92 19.7C127.92 20.0947 127.861 20.5107 127.744 20.948C127.637 21.3854 127.472 21.8227 127.248 22.26C127.035 22.6867 126.757 23.0974 126.416 23.492C126.075 23.876 125.669 24.2174 125.2 24.516C124.741 24.8147 124.219 25.0547 123.632 25.236C123.056 25.4067 122.411 25.492 121.696 25.492C120.64 25.492 119.733 25.3054 118.976 24.932C118.219 24.548 117.595 24.068 117.104 23.492C116.613 22.916 116.251 22.292 116.016 21.62C115.792 20.9374 115.68 20.2974 115.68 19.7ZM117.248 19.7C117.248 20.4467 117.36 21.1347 117.584 21.764C117.819 22.3827 118.133 22.916 118.528 23.364C118.933 23.812 119.408 24.164 119.952 24.42C120.496 24.6654 121.088 24.788 121.728 24.788C122.357 24.788 122.949 24.6654 123.504 24.42C124.069 24.164 124.56 23.812 124.976 23.364C125.403 22.916 125.739 22.3827 125.984 21.764C126.229 21.1347 126.352 20.4467 126.352 19.7C126.352 18.9534 126.229 18.2707 125.984 17.652C125.739 17.0227 125.403 16.484 124.976 16.036C124.56 15.588 124.069 15.2414 123.504 14.996C122.949 14.74 122.357 14.612 121.728 14.612C121.088 14.612 120.496 14.74 119.952 14.996C119.408 15.2414 118.933 15.588 118.528 16.036C118.133 16.484 117.819 17.0227 117.584 17.652C117.36 18.2707 117.248 18.9534 117.248 19.7ZM134.964 14.1H136.42V15.348H136.98C137.748 15.348 138.425 15.4707 139.012 15.716C139.598 15.9614 140.089 16.2867 140.484 16.692C140.889 17.0974 141.193 17.556 141.396 18.068C141.609 18.58 141.716 19.108 141.716 19.652C141.716 20.068 141.63 20.5267 141.46 21.028C141.3 21.5187 141.022 21.9774 140.628 22.404C140.233 22.8307 139.71 23.188 139.06 23.476C138.42 23.764 137.614 23.908 136.644 23.908H136.42V25.3H134.964V23.908H134.756C133.785 23.908 132.974 23.764 132.324 23.476C131.673 23.188 131.15 22.8307 130.756 22.404C130.372 21.9774 130.094 21.5187 129.924 21.028C129.764 20.5267 129.684 20.068 129.684 19.652C129.684 19.108 129.785 18.58 129.988 18.068C130.19 17.556 130.489 17.0974 130.884 16.692C131.289 16.2867 131.785 15.9614 132.372 15.716C132.969 15.4707 133.652 15.348 134.42 15.348H134.964V14.1ZM134.964 23.268V16.02H134.756C134.126 16.02 133.588 16.132 133.14 16.356C132.692 16.5694 132.324 16.8467 132.036 17.188C131.758 17.5294 131.55 17.9187 131.412 18.356C131.284 18.7934 131.22 19.2254 131.22 19.652C131.22 20.164 131.305 20.6387 131.476 21.076C131.657 21.5134 131.908 21.8974 132.228 22.228C132.548 22.548 132.932 22.804 133.38 22.996C133.828 23.1774 134.324 23.268 134.868 23.268H134.964ZM136.42 23.268H136.532C137.076 23.268 137.572 23.1774 138.02 22.996C138.468 22.804 138.852 22.548 139.172 22.228C139.492 21.8974 139.737 21.5134 139.908 21.076C140.089 20.6387 140.18 20.164 140.18 19.652C140.18 19.2254 140.11 18.7934 139.972 18.356C139.844 17.9187 139.636 17.5294 139.348 17.188C139.07 16.8467 138.708 16.5694 138.26 16.356C137.812 16.132 137.273 16.02 136.644 16.02H136.42V23.268ZM146.053 23.988L152.693 14.1H154.149V25.3H152.693V15.3L146.053 25.3H144.597V14.1H146.053V23.988ZM167.603 23.236L168.083 23.668C167.945 23.828 167.742 24.0147 167.475 24.228C167.209 24.4414 166.873 24.644 166.467 24.836C166.073 25.0174 165.603 25.172 165.059 25.3C164.526 25.428 163.918 25.492 163.235 25.492C162.158 25.492 161.23 25.3267 160.451 24.996C159.673 24.6547 159.033 24.212 158.531 23.668C158.03 23.1134 157.657 22.484 157.411 21.78C157.177 21.0654 157.059 20.3347 157.059 19.588C157.059 18.724 157.209 17.9454 157.507 17.252C157.806 16.548 158.227 15.9507 158.771 15.46C159.315 14.9587 159.966 14.5747 160.723 14.308C161.491 14.0414 162.339 13.908 163.267 13.908C163.907 13.908 164.478 13.972 164.979 14.1C165.481 14.228 165.918 14.404 166.291 14.628C166.665 14.852 166.974 15.1187 167.219 15.428C167.475 15.7374 167.683 16.0734 167.843 16.436H166.659C166.585 16.212 166.451 15.9934 166.259 15.78C166.078 15.556 165.838 15.3587 165.539 15.188C165.251 15.0174 164.915 14.8787 164.531 14.772C164.158 14.6654 163.742 14.612 163.283 14.612C162.611 14.612 161.987 14.7347 161.411 14.98C160.846 15.2254 160.355 15.5667 159.939 16.004C159.523 16.4414 159.198 16.964 158.963 17.572C158.739 18.1694 158.627 18.8307 158.627 19.556C158.627 20.2387 158.734 20.8947 158.947 21.524C159.171 22.1534 159.497 22.708 159.923 23.188C160.35 23.668 160.883 24.052 161.523 24.34C162.163 24.628 162.899 24.772 163.731 24.772C165.225 24.772 166.515 24.26 167.603 23.236Z" fill="white"/>
</svg>
