<svg width="375" height="50" viewBox="0 0 375 50" fill="none" xmlns="http://www.w3.org/2000/svg">
<g opacity="0.07">
<path d="M-3 0.861876H4.76099L22.0076 42.232H22.2951L39.0387 0.861876H42.7755L22.3669 51.1381H18.0553L-3 0.861876Z" fill="white"/>
<path d="M59.3226 0.861876H65.8619V51.1381H59.3226V0.861876Z" fill="white"/>
<path d="M88.867 51.1381V0.861876H95.4063V47.1878H121.348V51.1381H88.867Z" fill="white"/>
<path d="M134.97 51.1381V0.861876H141.51V47.1878H167.451V51.1381H134.97Z" fill="white"/>
<path d="M209.028 36.3425H184.236L177.912 51.1381H174.606L195.877 0.861876H199.47L222.897 51.1381H215.926L209.028 36.3425ZM207.518 33.1105L196.236 8.90608H195.949L185.601 33.1105H207.518Z" fill="white"/>
<path d="M282.356 28.7293V51.1381H276.176V48.1934C274.356 49.151 272.056 50.0368 269.277 50.8508C266.499 51.6169 263.313 52 259.72 52C254.929 52 250.809 51.2578 247.36 49.7735C243.91 48.2413 241.06 46.2302 238.808 43.7403C236.605 41.2026 234.952 38.3536 233.85 35.1934C232.796 31.9853 232.269 28.6814 232.269 25.2818C232.269 21.3076 232.964 17.7643 234.353 14.6519C235.742 11.4917 237.683 8.83425 240.174 6.67956C242.665 4.52486 245.611 2.87293 249.013 1.72376C252.462 0.574585 256.223 0 260.295 0C263.84 0 266.906 0.406997 269.493 1.22099C272.128 1.98711 274.332 2.94475 276.104 4.09392C277.877 5.24309 279.266 6.48803 280.272 7.82873C281.326 9.12155 282.069 10.2947 282.5 11.3481H277.326C277.038 10.3425 276.392 9.36096 275.386 8.40331C274.427 7.39779 273.182 6.51197 271.649 5.74585C270.116 4.97974 268.367 4.35727 266.403 3.87845C264.439 3.39963 262.331 3.16022 260.079 3.16022C256.678 3.16022 253.684 3.71086 251.097 4.81215C248.557 5.91344 246.402 7.46961 244.629 9.48066C242.857 11.4917 241.515 13.8858 240.605 16.663C239.743 19.4401 239.311 22.4807 239.311 25.7845C239.311 29.1363 239.766 32.2247 240.677 35.0497C241.635 37.8269 243.048 40.2449 244.917 42.3039C246.785 44.3149 249.132 45.895 251.959 47.0442C254.785 48.1934 258.091 48.768 261.876 48.768C264.75 48.768 267.313 48.4328 269.565 47.7624C271.816 47.0921 274.02 46.0626 276.176 44.674V31.674H268.128V28.7293H282.356Z" fill="white"/>
<path d="M301.067 0.861876H307.607V51.1381H301.067V0.861876Z" fill="white"/>
<path d="M321.026 26C321.026 23.2707 321.529 20.3738 322.535 17.3094C323.589 14.2449 325.218 11.4438 327.422 8.90608C329.626 6.32044 332.428 4.18969 335.83 2.51381C339.231 0.837937 343.303 0 348.046 0C352.837 0 356.981 0.861878 360.478 2.58563C364.023 4.26151 366.946 6.39226 369.245 8.9779C371.545 11.5635 373.245 14.3886 374.347 17.453C375.449 20.4696 376 23.3186 376 26C376 27.7716 375.737 29.639 375.21 31.6022C374.73 33.5654 373.988 35.5285 372.982 37.4917C372.024 39.407 370.778 41.2505 369.245 43.0221C367.712 44.7459 365.892 46.2781 363.784 47.6188C361.724 48.9595 359.376 50.0368 356.741 50.8508C354.154 51.6169 351.256 52 348.046 52C343.303 52 339.231 51.1621 335.83 49.4862C332.428 47.7624 329.626 45.6077 327.422 43.0221C325.218 40.4365 323.589 37.6354 322.535 34.6188C321.529 31.5543 321.026 28.6814 321.026 26ZM328.069 26C328.069 29.3517 328.572 32.4401 329.578 35.2652C330.632 38.0424 332.045 40.4365 333.818 42.4475C335.638 44.4586 337.77 46.0387 340.213 47.1878C342.657 48.2891 345.315 48.8398 348.19 48.8398C351.016 48.8398 353.675 48.2891 356.166 47.1878C358.705 46.0387 360.909 44.4586 362.778 42.4475C364.694 40.4365 366.203 38.0424 367.305 35.2652C368.407 32.4401 368.958 29.3517 368.958 26C368.958 22.6482 368.407 19.5838 367.305 16.8066C366.203 13.9816 364.694 11.5635 362.778 9.55248C360.909 7.54143 358.705 5.98526 356.166 4.88397C353.675 3.7348 351.016 3.16022 348.19 3.16022C345.315 3.16022 342.657 3.7348 340.213 4.88397C337.77 5.98526 335.638 7.54143 333.818 9.55248C332.045 11.5635 330.632 13.9816 329.578 16.8066C328.572 19.5838 328.069 22.6482 328.069 26Z" fill="white"/>
<path d="M333.093 28.3649V24.073H333.759L335.51 26.921L335.243 26.9241L336.93 24.073H337.584V28.3649H336.912L336.921 24.9866L337.053 25.0326L335.593 27.4391H335.09L333.602 25.0326L333.713 24.9866L333.722 28.3649H333.093Z" fill="white"/>
<path d="M341.062 28.4569C340.739 28.4569 340.44 28.4007 340.164 28.2883C339.89 28.1738 339.65 28.0154 339.446 27.8131C339.244 27.6108 339.085 27.3737 338.971 27.1019C338.858 26.8301 338.802 26.5358 338.802 26.219C338.802 25.9001 338.858 25.6048 338.971 25.333C339.085 25.0612 339.244 24.8241 339.446 24.6218C339.65 24.4195 339.89 24.2621 340.164 24.1497C340.44 24.0373 340.739 23.9811 341.062 23.9811C341.383 23.9811 341.681 24.0383 341.955 24.1527C342.229 24.2672 342.468 24.4266 342.673 24.631C342.877 24.8354 343.036 25.0735 343.148 25.3453C343.263 25.615 343.32 25.9063 343.32 26.219C343.32 26.5358 343.263 26.8301 343.148 27.1019C343.036 27.3737 342.877 27.6108 342.673 27.8131C342.468 28.0154 342.229 28.1738 341.955 28.2883C341.681 28.4007 341.383 28.4569 341.062 28.4569ZM341.062 27.807C341.279 27.807 341.481 27.7702 341.667 27.6966C341.855 27.621 342.018 27.5137 342.157 27.3747C342.296 27.2337 342.405 27.0661 342.483 26.872C342.562 26.6758 342.602 26.4581 342.602 26.219C342.602 25.8981 342.534 25.6191 342.397 25.3821C342.262 25.1429 342.078 24.958 341.845 24.8272C341.611 24.6964 341.351 24.631 341.062 24.631C340.846 24.631 340.643 24.6688 340.455 24.7444C340.269 24.818 340.105 24.9243 339.964 25.0632C339.825 25.2022 339.716 25.3698 339.636 25.566C339.558 25.7602 339.52 25.9778 339.52 26.219C339.52 26.5398 339.588 26.8198 339.725 27.059C339.862 27.296 340.046 27.48 340.277 27.6108C340.51 27.7416 340.772 27.807 341.062 27.807Z" fill="white"/>
<path d="M345.934 28.4569C345.637 28.4569 345.347 28.415 345.062 28.3312C344.78 28.2454 344.542 28.1227 344.348 27.9633L344.685 27.4391C344.787 27.527 344.906 27.6026 345.041 27.6659C345.178 27.7293 345.323 27.7784 345.476 27.8131C345.63 27.8458 345.783 27.8621 345.937 27.8621C346.217 27.8621 346.443 27.809 346.614 27.7027C346.788 27.5965 346.875 27.4411 346.875 27.2368C346.875 27.0835 346.816 26.9537 346.697 26.8474C346.581 26.7412 346.364 26.643 346.047 26.5531L345.605 26.4244C345.2 26.3079 344.905 26.1536 344.719 25.9615C344.535 25.7693 344.443 25.5302 344.443 25.2441C344.443 25.054 344.481 24.8824 344.556 24.7291C344.634 24.5758 344.742 24.443 344.881 24.3305C345.023 24.2181 345.188 24.1323 345.378 24.073C345.568 24.0138 345.777 23.9841 346.004 23.9841C346.292 23.9841 346.56 24.026 346.808 24.1098C347.055 24.1936 347.26 24.306 347.421 24.447L347.071 24.9559C346.983 24.8762 346.88 24.8078 346.762 24.7505C346.645 24.6933 346.519 24.6494 346.384 24.6187C346.249 24.5881 346.112 24.5727 345.973 24.5727C345.802 24.5727 345.649 24.5983 345.516 24.6494C345.385 24.6984 345.283 24.77 345.21 24.864C345.136 24.958 345.099 25.0724 345.099 25.2073C345.099 25.3054 345.124 25.3913 345.173 25.4648C345.222 25.5384 345.306 25.6058 345.424 25.6672C345.545 25.7264 345.711 25.7867 345.921 25.848L346.387 25.986C346.784 26.1025 347.074 26.2547 347.259 26.4428C347.443 26.6287 347.535 26.8709 347.535 27.1693C347.535 27.4248 347.471 27.6496 347.344 27.8438C347.22 28.0359 347.038 28.1861 346.798 28.2944C346.559 28.4027 346.271 28.4569 345.934 28.4569Z" fill="white"/>
<path d="M350.712 28.4569C350.266 28.4569 349.876 28.3649 349.543 28.181C349.21 27.997 348.95 27.7375 348.764 27.4023C348.58 27.0651 348.488 26.6717 348.488 26.222C348.488 25.895 348.542 25.5956 348.651 25.3238C348.761 25.0499 348.915 24.8129 349.114 24.6126C349.314 24.4123 349.55 24.257 349.822 24.1466C350.094 24.0362 350.393 23.9811 350.718 23.9811C351.045 23.9811 351.327 24.0219 351.565 24.1037C351.804 24.1854 352.012 24.3019 352.19 24.4532L351.834 25.0142C351.699 24.8895 351.542 24.7965 351.362 24.7352C351.182 24.6739 350.984 24.6432 350.767 24.6432C350.528 24.6432 350.312 24.68 350.12 24.7536C349.928 24.8272 349.763 24.9324 349.626 25.0694C349.491 25.2043 349.387 25.3688 349.313 25.5629C349.242 25.755 349.206 25.9727 349.206 26.2159C349.206 26.547 349.27 26.8301 349.399 27.0651C349.53 27.3001 349.714 27.48 349.951 27.6046C350.19 27.7273 350.473 27.7886 350.798 27.7886C351.014 27.7886 351.223 27.7569 351.423 27.6935C351.626 27.6281 351.815 27.5229 351.991 27.3778L352.31 27.9572C352.103 28.1186 351.867 28.2423 351.601 28.3281C351.338 28.414 351.041 28.4569 350.712 28.4569Z" fill="white"/>
<path d="M355.31 28.4569C354.987 28.4569 354.688 28.4007 354.411 28.2883C354.137 28.1738 353.898 28.0154 353.694 27.8131C353.491 27.6108 353.333 27.3737 353.218 27.1019C353.106 26.8301 353.05 26.5358 353.05 26.219C353.05 25.9001 353.106 25.6048 353.218 25.333C353.333 25.0612 353.491 24.8241 353.694 24.6218C353.898 24.4195 354.137 24.2621 354.411 24.1497C354.688 24.0373 354.987 23.9811 355.31 23.9811C355.631 23.9811 355.929 24.0383 356.203 24.1527C356.477 24.2672 356.716 24.4266 356.92 24.631C357.125 24.8354 357.283 25.0735 357.396 25.3453C357.51 25.615 357.568 25.9063 357.568 26.219C357.568 26.5358 357.51 26.8301 357.396 27.1019C357.283 27.3737 357.125 27.6108 356.92 27.8131C356.716 28.0154 356.477 28.1738 356.203 28.2883C355.929 28.4007 355.631 28.4569 355.31 28.4569ZM355.31 27.807C355.527 27.807 355.728 27.7702 355.914 27.6966C356.103 27.621 356.266 27.5137 356.405 27.3747C356.544 27.2337 356.653 27.0661 356.73 26.872C356.81 26.6758 356.85 26.4581 356.85 26.219C356.85 25.8981 356.781 25.6191 356.644 25.3821C356.509 25.1429 356.325 24.958 356.092 24.8272C355.859 24.6964 355.598 24.631 355.31 24.631C355.093 24.631 354.891 24.6688 354.703 24.7444C354.517 24.818 354.353 24.9243 354.212 25.0632C354.073 25.2022 353.964 25.3698 353.884 25.566C353.806 25.7602 353.767 25.9778 353.767 26.219C353.767 26.5398 353.836 26.8198 353.973 27.059C354.11 27.296 354.294 27.48 354.525 27.6108C354.758 27.7416 355.02 27.807 355.31 27.807Z" fill="white"/>
<path d="M359.57 28.3649L358.276 24.073H358.996L359.932 27.4115L360.913 24.073H361.628L362.603 27.4084L363.539 24.073H364.238L362.95 28.3649H362.223L361.263 25.1031L360.294 28.3649H359.57Z" fill="white"/>
</g>
</svg>
